%TF.GenerationSoftware,KiCad,Pcbnew,8.0.1*%
%TF.CreationDate,2024-09-28T11:52:05+02:00*%
%TF.ProjectId,stmbl_5.0,73746d62-6c5f-4352-9e30-2e6b69636164,1.0*%
%TF.SameCoordinates,Original*%
%TF.FileFunction,Drillmap*%
%TF.FilePolarity,Positive*%
%FSLAX45Y45*%
G04 Gerber Fmt 4.5, Leading zero omitted, Abs format (unit mm)*
G04 Created by KiCad (PCBNEW 8.0.1) date 2024-09-28 11:52:05*
%MOMM*%
%LPD*%
G01*
G04 APERTURE LIST*
%ADD10C,0.150000*%
%ADD11C,0.200000*%
%ADD12C,0.100000*%
%ADD13C,0.260000*%
%ADD14C,0.280000*%
%ADD15C,0.310000*%
%ADD16C,0.500000*%
G04 APERTURE END LIST*
D10*
X14374000Y-10508000D02*
G75*
G02*
X14374000Y-10208000I0J150000D01*
G01*
X19698000Y-14962000D02*
X9918000Y-14962000D01*
X9818000Y-14862000D02*
X9818000Y-5082000D01*
X9918000Y-14962000D02*
G75*
G02*
X9818000Y-14862000I0J100000D01*
G01*
X14374000Y-10508000D02*
X14774000Y-10508000D01*
X9918000Y-4982000D02*
X19697933Y-4981995D01*
X14774000Y-10208000D02*
G75*
G02*
X14774000Y-10508000I0J-150000D01*
G01*
X14374000Y-10208000D02*
X14774000Y-10208000D01*
X19797933Y-5083000D02*
X19798000Y-14862000D01*
X19697933Y-4981995D02*
G75*
G02*
X19797930Y-5083000I-3J-100005D01*
G01*
X9818000Y-5082000D02*
G75*
G02*
X9918000Y-4982000I100000J0D01*
G01*
X19798000Y-14862000D02*
G75*
G02*
X19698000Y-14962000I-100000J0D01*
G01*
D11*
D12*
X15728500Y-5459000D02*
X15793500Y-5524000D01*
X15793500Y-5459000D02*
X15728500Y-5524000D01*
X16306500Y-5459000D02*
X16371500Y-5524000D01*
X16371500Y-5459000D02*
X16306500Y-5524000D01*
X18889000Y-10748500D02*
X18954000Y-10813500D01*
X18954000Y-10748500D02*
X18889000Y-10813500D01*
X18889000Y-11326500D02*
X18954000Y-11391500D01*
X18954000Y-11326500D02*
X18889000Y-11391500D01*
D13*
X10727000Y-9828000D02*
G75*
G02*
X10467000Y-9828000I-130000J0D01*
G01*
X10467000Y-9828000D02*
G75*
G02*
X10727000Y-9828000I130000J0D01*
G01*
X17754103Y-13722847D02*
G75*
G02*
X17494103Y-13722847I-130000J0D01*
G01*
X17494103Y-13722847D02*
G75*
G02*
X17754103Y-13722847I130000J0D01*
G01*
D14*
X12510000Y-6550000D02*
X12510000Y-6830000D01*
X12370000Y-6690000D02*
X12650000Y-6690000D01*
X12510000Y-10050000D02*
X12510000Y-10330000D01*
X12370000Y-10190000D02*
X12650000Y-10190000D01*
X16010000Y-10050000D02*
X16010000Y-10330000D01*
X15870000Y-10190000D02*
X16150000Y-10190000D01*
D15*
X19669603Y-5424603D02*
X19669603Y-5205397D01*
X19450397Y-5205397D01*
X19450397Y-5424603D01*
X19669603Y-5424603D01*
X19669603Y-6694603D02*
X19669603Y-6475397D01*
X19450397Y-6475397D01*
X19450397Y-6694603D01*
X19669603Y-6694603D01*
X19669603Y-7074603D02*
X19669603Y-6855397D01*
X19450397Y-6855397D01*
X19450397Y-7074603D01*
X19669603Y-7074603D01*
X19669603Y-8344603D02*
X19669603Y-8125397D01*
X19450397Y-8125397D01*
X19450397Y-8344603D01*
X19669603Y-8344603D01*
X19669603Y-8724603D02*
X19669603Y-8505397D01*
X19450397Y-8505397D01*
X19450397Y-8724603D01*
X19669603Y-8724603D01*
X19669603Y-9994603D02*
X19669603Y-9775397D01*
X19450397Y-9775397D01*
X19450397Y-9994603D01*
X19669603Y-9994603D01*
D16*
X13612603Y-10978847D02*
X13862603Y-10728847D01*
X13612603Y-10478847D01*
X13362603Y-10728847D01*
X13612603Y-10978847D01*
X13612603Y-14358847D02*
X13862603Y-14108847D01*
X13612603Y-13858847D01*
X13362603Y-14108847D01*
X13612603Y-14358847D01*
D11*
X10071277Y-15280984D02*
X10071277Y-15080984D01*
X10071277Y-15080984D02*
X10118896Y-15080984D01*
X10118896Y-15080984D02*
X10147467Y-15090508D01*
X10147467Y-15090508D02*
X10166515Y-15109555D01*
X10166515Y-15109555D02*
X10176039Y-15128603D01*
X10176039Y-15128603D02*
X10185563Y-15166698D01*
X10185563Y-15166698D02*
X10185563Y-15195269D01*
X10185563Y-15195269D02*
X10176039Y-15233365D01*
X10176039Y-15233365D02*
X10166515Y-15252412D01*
X10166515Y-15252412D02*
X10147467Y-15271460D01*
X10147467Y-15271460D02*
X10118896Y-15280984D01*
X10118896Y-15280984D02*
X10071277Y-15280984D01*
X10271277Y-15280984D02*
X10271277Y-15147650D01*
X10271277Y-15185746D02*
X10280801Y-15166698D01*
X10280801Y-15166698D02*
X10290324Y-15157174D01*
X10290324Y-15157174D02*
X10309372Y-15147650D01*
X10309372Y-15147650D02*
X10328420Y-15147650D01*
X10395086Y-15280984D02*
X10395086Y-15147650D01*
X10395086Y-15080984D02*
X10385563Y-15090508D01*
X10385563Y-15090508D02*
X10395086Y-15100031D01*
X10395086Y-15100031D02*
X10404610Y-15090508D01*
X10404610Y-15090508D02*
X10395086Y-15080984D01*
X10395086Y-15080984D02*
X10395086Y-15100031D01*
X10518896Y-15280984D02*
X10499848Y-15271460D01*
X10499848Y-15271460D02*
X10490324Y-15252412D01*
X10490324Y-15252412D02*
X10490324Y-15080984D01*
X10623658Y-15280984D02*
X10604610Y-15271460D01*
X10604610Y-15271460D02*
X10595086Y-15252412D01*
X10595086Y-15252412D02*
X10595086Y-15080984D01*
X10852229Y-15280984D02*
X10852229Y-15080984D01*
X10852229Y-15080984D02*
X10918896Y-15223841D01*
X10918896Y-15223841D02*
X10985563Y-15080984D01*
X10985563Y-15080984D02*
X10985563Y-15280984D01*
X11166515Y-15280984D02*
X11166515Y-15176222D01*
X11166515Y-15176222D02*
X11156991Y-15157174D01*
X11156991Y-15157174D02*
X11137944Y-15147650D01*
X11137944Y-15147650D02*
X11099848Y-15147650D01*
X11099848Y-15147650D02*
X11080801Y-15157174D01*
X11166515Y-15271460D02*
X11147467Y-15280984D01*
X11147467Y-15280984D02*
X11099848Y-15280984D01*
X11099848Y-15280984D02*
X11080801Y-15271460D01*
X11080801Y-15271460D02*
X11071277Y-15252412D01*
X11071277Y-15252412D02*
X11071277Y-15233365D01*
X11071277Y-15233365D02*
X11080801Y-15214317D01*
X11080801Y-15214317D02*
X11099848Y-15204793D01*
X11099848Y-15204793D02*
X11147467Y-15204793D01*
X11147467Y-15204793D02*
X11166515Y-15195269D01*
X11261753Y-15147650D02*
X11261753Y-15347650D01*
X11261753Y-15157174D02*
X11280801Y-15147650D01*
X11280801Y-15147650D02*
X11318896Y-15147650D01*
X11318896Y-15147650D02*
X11337943Y-15157174D01*
X11337943Y-15157174D02*
X11347467Y-15166698D01*
X11347467Y-15166698D02*
X11356991Y-15185746D01*
X11356991Y-15185746D02*
X11356991Y-15242888D01*
X11356991Y-15242888D02*
X11347467Y-15261936D01*
X11347467Y-15261936D02*
X11337943Y-15271460D01*
X11337943Y-15271460D02*
X11318896Y-15280984D01*
X11318896Y-15280984D02*
X11280801Y-15280984D01*
X11280801Y-15280984D02*
X11261753Y-15271460D01*
X11442705Y-15261936D02*
X11452229Y-15271460D01*
X11452229Y-15271460D02*
X11442705Y-15280984D01*
X11442705Y-15280984D02*
X11433182Y-15271460D01*
X11433182Y-15271460D02*
X11442705Y-15261936D01*
X11442705Y-15261936D02*
X11442705Y-15280984D01*
X11442705Y-15157174D02*
X11452229Y-15166698D01*
X11452229Y-15166698D02*
X11442705Y-15176222D01*
X11442705Y-15176222D02*
X11433182Y-15166698D01*
X11433182Y-15166698D02*
X11442705Y-15157174D01*
X11442705Y-15157174D02*
X11442705Y-15176222D01*
D12*
X9745500Y-15577000D02*
X9810500Y-15642000D01*
X9810500Y-15577000D02*
X9745500Y-15642000D01*
D11*
X10109372Y-15500984D02*
X10128420Y-15500984D01*
X10128420Y-15500984D02*
X10147467Y-15510508D01*
X10147467Y-15510508D02*
X10156991Y-15520031D01*
X10156991Y-15520031D02*
X10166515Y-15539079D01*
X10166515Y-15539079D02*
X10176039Y-15577174D01*
X10176039Y-15577174D02*
X10176039Y-15624793D01*
X10176039Y-15624793D02*
X10166515Y-15662888D01*
X10166515Y-15662888D02*
X10156991Y-15681936D01*
X10156991Y-15681936D02*
X10147467Y-15691460D01*
X10147467Y-15691460D02*
X10128420Y-15700984D01*
X10128420Y-15700984D02*
X10109372Y-15700984D01*
X10109372Y-15700984D02*
X10090324Y-15691460D01*
X10090324Y-15691460D02*
X10080801Y-15681936D01*
X10080801Y-15681936D02*
X10071277Y-15662888D01*
X10071277Y-15662888D02*
X10061753Y-15624793D01*
X10061753Y-15624793D02*
X10061753Y-15577174D01*
X10061753Y-15577174D02*
X10071277Y-15539079D01*
X10071277Y-15539079D02*
X10080801Y-15520031D01*
X10080801Y-15520031D02*
X10090324Y-15510508D01*
X10090324Y-15510508D02*
X10109372Y-15500984D01*
X10261753Y-15681936D02*
X10271277Y-15691460D01*
X10271277Y-15691460D02*
X10261753Y-15700984D01*
X10261753Y-15700984D02*
X10252229Y-15691460D01*
X10252229Y-15691460D02*
X10261753Y-15681936D01*
X10261753Y-15681936D02*
X10261753Y-15700984D01*
X10442705Y-15500984D02*
X10404610Y-15500984D01*
X10404610Y-15500984D02*
X10385563Y-15510508D01*
X10385563Y-15510508D02*
X10376039Y-15520031D01*
X10376039Y-15520031D02*
X10356991Y-15548603D01*
X10356991Y-15548603D02*
X10347467Y-15586698D01*
X10347467Y-15586698D02*
X10347467Y-15662888D01*
X10347467Y-15662888D02*
X10356991Y-15681936D01*
X10356991Y-15681936D02*
X10366515Y-15691460D01*
X10366515Y-15691460D02*
X10385563Y-15700984D01*
X10385563Y-15700984D02*
X10423658Y-15700984D01*
X10423658Y-15700984D02*
X10442705Y-15691460D01*
X10442705Y-15691460D02*
X10452229Y-15681936D01*
X10452229Y-15681936D02*
X10461753Y-15662888D01*
X10461753Y-15662888D02*
X10461753Y-15615269D01*
X10461753Y-15615269D02*
X10452229Y-15596222D01*
X10452229Y-15596222D02*
X10442705Y-15586698D01*
X10442705Y-15586698D02*
X10423658Y-15577174D01*
X10423658Y-15577174D02*
X10385563Y-15577174D01*
X10385563Y-15577174D02*
X10366515Y-15586698D01*
X10366515Y-15586698D02*
X10356991Y-15596222D01*
X10356991Y-15596222D02*
X10347467Y-15615269D01*
X10642705Y-15500984D02*
X10547467Y-15500984D01*
X10547467Y-15500984D02*
X10537944Y-15596222D01*
X10537944Y-15596222D02*
X10547467Y-15586698D01*
X10547467Y-15586698D02*
X10566515Y-15577174D01*
X10566515Y-15577174D02*
X10614134Y-15577174D01*
X10614134Y-15577174D02*
X10633182Y-15586698D01*
X10633182Y-15586698D02*
X10642705Y-15596222D01*
X10642705Y-15596222D02*
X10652229Y-15615269D01*
X10652229Y-15615269D02*
X10652229Y-15662888D01*
X10652229Y-15662888D02*
X10642705Y-15681936D01*
X10642705Y-15681936D02*
X10633182Y-15691460D01*
X10633182Y-15691460D02*
X10614134Y-15700984D01*
X10614134Y-15700984D02*
X10566515Y-15700984D01*
X10566515Y-15700984D02*
X10547467Y-15691460D01*
X10547467Y-15691460D02*
X10537944Y-15681936D01*
X10776039Y-15500984D02*
X10795086Y-15500984D01*
X10795086Y-15500984D02*
X10814134Y-15510508D01*
X10814134Y-15510508D02*
X10823658Y-15520031D01*
X10823658Y-15520031D02*
X10833182Y-15539079D01*
X10833182Y-15539079D02*
X10842705Y-15577174D01*
X10842705Y-15577174D02*
X10842705Y-15624793D01*
X10842705Y-15624793D02*
X10833182Y-15662888D01*
X10833182Y-15662888D02*
X10823658Y-15681936D01*
X10823658Y-15681936D02*
X10814134Y-15691460D01*
X10814134Y-15691460D02*
X10795086Y-15700984D01*
X10795086Y-15700984D02*
X10776039Y-15700984D01*
X10776039Y-15700984D02*
X10756991Y-15691460D01*
X10756991Y-15691460D02*
X10747467Y-15681936D01*
X10747467Y-15681936D02*
X10737944Y-15662888D01*
X10737944Y-15662888D02*
X10728420Y-15624793D01*
X10728420Y-15624793D02*
X10728420Y-15577174D01*
X10728420Y-15577174D02*
X10737944Y-15539079D01*
X10737944Y-15539079D02*
X10747467Y-15520031D01*
X10747467Y-15520031D02*
X10756991Y-15510508D01*
X10756991Y-15510508D02*
X10776039Y-15500984D01*
X10928420Y-15700984D02*
X10928420Y-15567650D01*
X10928420Y-15586698D02*
X10937944Y-15577174D01*
X10937944Y-15577174D02*
X10956991Y-15567650D01*
X10956991Y-15567650D02*
X10985563Y-15567650D01*
X10985563Y-15567650D02*
X11004610Y-15577174D01*
X11004610Y-15577174D02*
X11014134Y-15596222D01*
X11014134Y-15596222D02*
X11014134Y-15700984D01*
X11014134Y-15596222D02*
X11023658Y-15577174D01*
X11023658Y-15577174D02*
X11042705Y-15567650D01*
X11042705Y-15567650D02*
X11071277Y-15567650D01*
X11071277Y-15567650D02*
X11090325Y-15577174D01*
X11090325Y-15577174D02*
X11099848Y-15596222D01*
X11099848Y-15596222D02*
X11099848Y-15700984D01*
X11195086Y-15700984D02*
X11195086Y-15567650D01*
X11195086Y-15586698D02*
X11204610Y-15577174D01*
X11204610Y-15577174D02*
X11223658Y-15567650D01*
X11223658Y-15567650D02*
X11252229Y-15567650D01*
X11252229Y-15567650D02*
X11271277Y-15577174D01*
X11271277Y-15577174D02*
X11280801Y-15596222D01*
X11280801Y-15596222D02*
X11280801Y-15700984D01*
X11280801Y-15596222D02*
X11290324Y-15577174D01*
X11290324Y-15577174D02*
X11309372Y-15567650D01*
X11309372Y-15567650D02*
X11337943Y-15567650D01*
X11337943Y-15567650D02*
X11356991Y-15577174D01*
X11356991Y-15577174D02*
X11366515Y-15596222D01*
X11366515Y-15596222D02*
X11366515Y-15700984D01*
X11756991Y-15491460D02*
X11585563Y-15748603D01*
X12014134Y-15500984D02*
X12033182Y-15500984D01*
X12033182Y-15500984D02*
X12052229Y-15510508D01*
X12052229Y-15510508D02*
X12061753Y-15520031D01*
X12061753Y-15520031D02*
X12071277Y-15539079D01*
X12071277Y-15539079D02*
X12080801Y-15577174D01*
X12080801Y-15577174D02*
X12080801Y-15624793D01*
X12080801Y-15624793D02*
X12071277Y-15662888D01*
X12071277Y-15662888D02*
X12061753Y-15681936D01*
X12061753Y-15681936D02*
X12052229Y-15691460D01*
X12052229Y-15691460D02*
X12033182Y-15700984D01*
X12033182Y-15700984D02*
X12014134Y-15700984D01*
X12014134Y-15700984D02*
X11995086Y-15691460D01*
X11995086Y-15691460D02*
X11985563Y-15681936D01*
X11985563Y-15681936D02*
X11976039Y-15662888D01*
X11976039Y-15662888D02*
X11966515Y-15624793D01*
X11966515Y-15624793D02*
X11966515Y-15577174D01*
X11966515Y-15577174D02*
X11976039Y-15539079D01*
X11976039Y-15539079D02*
X11985563Y-15520031D01*
X11985563Y-15520031D02*
X11995086Y-15510508D01*
X11995086Y-15510508D02*
X12014134Y-15500984D01*
X12166515Y-15681936D02*
X12176039Y-15691460D01*
X12176039Y-15691460D02*
X12166515Y-15700984D01*
X12166515Y-15700984D02*
X12156991Y-15691460D01*
X12156991Y-15691460D02*
X12166515Y-15681936D01*
X12166515Y-15681936D02*
X12166515Y-15700984D01*
X12299848Y-15500984D02*
X12318896Y-15500984D01*
X12318896Y-15500984D02*
X12337944Y-15510508D01*
X12337944Y-15510508D02*
X12347467Y-15520031D01*
X12347467Y-15520031D02*
X12356991Y-15539079D01*
X12356991Y-15539079D02*
X12366515Y-15577174D01*
X12366515Y-15577174D02*
X12366515Y-15624793D01*
X12366515Y-15624793D02*
X12356991Y-15662888D01*
X12356991Y-15662888D02*
X12347467Y-15681936D01*
X12347467Y-15681936D02*
X12337944Y-15691460D01*
X12337944Y-15691460D02*
X12318896Y-15700984D01*
X12318896Y-15700984D02*
X12299848Y-15700984D01*
X12299848Y-15700984D02*
X12280801Y-15691460D01*
X12280801Y-15691460D02*
X12271277Y-15681936D01*
X12271277Y-15681936D02*
X12261753Y-15662888D01*
X12261753Y-15662888D02*
X12252229Y-15624793D01*
X12252229Y-15624793D02*
X12252229Y-15577174D01*
X12252229Y-15577174D02*
X12261753Y-15539079D01*
X12261753Y-15539079D02*
X12271277Y-15520031D01*
X12271277Y-15520031D02*
X12280801Y-15510508D01*
X12280801Y-15510508D02*
X12299848Y-15500984D01*
X12442706Y-15520031D02*
X12452229Y-15510508D01*
X12452229Y-15510508D02*
X12471277Y-15500984D01*
X12471277Y-15500984D02*
X12518896Y-15500984D01*
X12518896Y-15500984D02*
X12537944Y-15510508D01*
X12537944Y-15510508D02*
X12547467Y-15520031D01*
X12547467Y-15520031D02*
X12556991Y-15539079D01*
X12556991Y-15539079D02*
X12556991Y-15558127D01*
X12556991Y-15558127D02*
X12547467Y-15586698D01*
X12547467Y-15586698D02*
X12433182Y-15700984D01*
X12433182Y-15700984D02*
X12556991Y-15700984D01*
X12737944Y-15500984D02*
X12642706Y-15500984D01*
X12642706Y-15500984D02*
X12633182Y-15596222D01*
X12633182Y-15596222D02*
X12642706Y-15586698D01*
X12642706Y-15586698D02*
X12661753Y-15577174D01*
X12661753Y-15577174D02*
X12709372Y-15577174D01*
X12709372Y-15577174D02*
X12728420Y-15586698D01*
X12728420Y-15586698D02*
X12737944Y-15596222D01*
X12737944Y-15596222D02*
X12747467Y-15615269D01*
X12747467Y-15615269D02*
X12747467Y-15662888D01*
X12747467Y-15662888D02*
X12737944Y-15681936D01*
X12737944Y-15681936D02*
X12728420Y-15691460D01*
X12728420Y-15691460D02*
X12709372Y-15700984D01*
X12709372Y-15700984D02*
X12661753Y-15700984D01*
X12661753Y-15700984D02*
X12642706Y-15691460D01*
X12642706Y-15691460D02*
X12633182Y-15681936D01*
X12918896Y-15500984D02*
X12880801Y-15500984D01*
X12880801Y-15500984D02*
X12861753Y-15510508D01*
X12861753Y-15510508D02*
X12852229Y-15520031D01*
X12852229Y-15520031D02*
X12833182Y-15548603D01*
X12833182Y-15548603D02*
X12823658Y-15586698D01*
X12823658Y-15586698D02*
X12823658Y-15662888D01*
X12823658Y-15662888D02*
X12833182Y-15681936D01*
X12833182Y-15681936D02*
X12842706Y-15691460D01*
X12842706Y-15691460D02*
X12861753Y-15700984D01*
X12861753Y-15700984D02*
X12899848Y-15700984D01*
X12899848Y-15700984D02*
X12918896Y-15691460D01*
X12918896Y-15691460D02*
X12928420Y-15681936D01*
X12928420Y-15681936D02*
X12937944Y-15662888D01*
X12937944Y-15662888D02*
X12937944Y-15615269D01*
X12937944Y-15615269D02*
X12928420Y-15596222D01*
X12928420Y-15596222D02*
X12918896Y-15586698D01*
X12918896Y-15586698D02*
X12899848Y-15577174D01*
X12899848Y-15577174D02*
X12861753Y-15577174D01*
X12861753Y-15577174D02*
X12842706Y-15586698D01*
X12842706Y-15586698D02*
X12833182Y-15596222D01*
X12833182Y-15596222D02*
X12823658Y-15615269D01*
X13014134Y-15500984D02*
X13014134Y-15539079D01*
X13090325Y-15500984D02*
X13090325Y-15539079D01*
X13385563Y-15777174D02*
X13376039Y-15767650D01*
X13376039Y-15767650D02*
X13356991Y-15739079D01*
X13356991Y-15739079D02*
X13347468Y-15720031D01*
X13347468Y-15720031D02*
X13337944Y-15691460D01*
X13337944Y-15691460D02*
X13328420Y-15643841D01*
X13328420Y-15643841D02*
X13328420Y-15605746D01*
X13328420Y-15605746D02*
X13337944Y-15558127D01*
X13337944Y-15558127D02*
X13347468Y-15529555D01*
X13347468Y-15529555D02*
X13356991Y-15510508D01*
X13356991Y-15510508D02*
X13376039Y-15481936D01*
X13376039Y-15481936D02*
X13385563Y-15472412D01*
X13547468Y-15567650D02*
X13547468Y-15700984D01*
X13499848Y-15491460D02*
X13452229Y-15634317D01*
X13452229Y-15634317D02*
X13576039Y-15634317D01*
X13804610Y-15700984D02*
X13804610Y-15500984D01*
X13890325Y-15700984D02*
X13890325Y-15596222D01*
X13890325Y-15596222D02*
X13880801Y-15577174D01*
X13880801Y-15577174D02*
X13861753Y-15567650D01*
X13861753Y-15567650D02*
X13833182Y-15567650D01*
X13833182Y-15567650D02*
X13814134Y-15577174D01*
X13814134Y-15577174D02*
X13804610Y-15586698D01*
X14014134Y-15700984D02*
X13995087Y-15691460D01*
X13995087Y-15691460D02*
X13985563Y-15681936D01*
X13985563Y-15681936D02*
X13976039Y-15662888D01*
X13976039Y-15662888D02*
X13976039Y-15605746D01*
X13976039Y-15605746D02*
X13985563Y-15586698D01*
X13985563Y-15586698D02*
X13995087Y-15577174D01*
X13995087Y-15577174D02*
X14014134Y-15567650D01*
X14014134Y-15567650D02*
X14042706Y-15567650D01*
X14042706Y-15567650D02*
X14061753Y-15577174D01*
X14061753Y-15577174D02*
X14071277Y-15586698D01*
X14071277Y-15586698D02*
X14080801Y-15605746D01*
X14080801Y-15605746D02*
X14080801Y-15662888D01*
X14080801Y-15662888D02*
X14071277Y-15681936D01*
X14071277Y-15681936D02*
X14061753Y-15691460D01*
X14061753Y-15691460D02*
X14042706Y-15700984D01*
X14042706Y-15700984D02*
X14014134Y-15700984D01*
X14195087Y-15700984D02*
X14176039Y-15691460D01*
X14176039Y-15691460D02*
X14166515Y-15672412D01*
X14166515Y-15672412D02*
X14166515Y-15500984D01*
X14347468Y-15691460D02*
X14328420Y-15700984D01*
X14328420Y-15700984D02*
X14290325Y-15700984D01*
X14290325Y-15700984D02*
X14271277Y-15691460D01*
X14271277Y-15691460D02*
X14261753Y-15672412D01*
X14261753Y-15672412D02*
X14261753Y-15596222D01*
X14261753Y-15596222D02*
X14271277Y-15577174D01*
X14271277Y-15577174D02*
X14290325Y-15567650D01*
X14290325Y-15567650D02*
X14328420Y-15567650D01*
X14328420Y-15567650D02*
X14347468Y-15577174D01*
X14347468Y-15577174D02*
X14356991Y-15596222D01*
X14356991Y-15596222D02*
X14356991Y-15615269D01*
X14356991Y-15615269D02*
X14261753Y-15634317D01*
X14433182Y-15691460D02*
X14452230Y-15700984D01*
X14452230Y-15700984D02*
X14490325Y-15700984D01*
X14490325Y-15700984D02*
X14509372Y-15691460D01*
X14509372Y-15691460D02*
X14518896Y-15672412D01*
X14518896Y-15672412D02*
X14518896Y-15662888D01*
X14518896Y-15662888D02*
X14509372Y-15643841D01*
X14509372Y-15643841D02*
X14490325Y-15634317D01*
X14490325Y-15634317D02*
X14461753Y-15634317D01*
X14461753Y-15634317D02*
X14442706Y-15624793D01*
X14442706Y-15624793D02*
X14433182Y-15605746D01*
X14433182Y-15605746D02*
X14433182Y-15596222D01*
X14433182Y-15596222D02*
X14442706Y-15577174D01*
X14442706Y-15577174D02*
X14461753Y-15567650D01*
X14461753Y-15567650D02*
X14490325Y-15567650D01*
X14490325Y-15567650D02*
X14509372Y-15577174D01*
X14585563Y-15777174D02*
X14595087Y-15767650D01*
X14595087Y-15767650D02*
X14614134Y-15739079D01*
X14614134Y-15739079D02*
X14623658Y-15720031D01*
X14623658Y-15720031D02*
X14633182Y-15691460D01*
X14633182Y-15691460D02*
X14642706Y-15643841D01*
X14642706Y-15643841D02*
X14642706Y-15605746D01*
X14642706Y-15605746D02*
X14633182Y-15558127D01*
X14633182Y-15558127D02*
X14623658Y-15529555D01*
X14623658Y-15529555D02*
X14614134Y-15510508D01*
X14614134Y-15510508D02*
X14595087Y-15481936D01*
X14595087Y-15481936D02*
X14585563Y-15472412D01*
X14947468Y-15777174D02*
X14937944Y-15767650D01*
X14937944Y-15767650D02*
X14918896Y-15739079D01*
X14918896Y-15739079D02*
X14909372Y-15720031D01*
X14909372Y-15720031D02*
X14899849Y-15691460D01*
X14899849Y-15691460D02*
X14890325Y-15643841D01*
X14890325Y-15643841D02*
X14890325Y-15605746D01*
X14890325Y-15605746D02*
X14899849Y-15558127D01*
X14899849Y-15558127D02*
X14909372Y-15529555D01*
X14909372Y-15529555D02*
X14918896Y-15510508D01*
X14918896Y-15510508D02*
X14937944Y-15481936D01*
X14937944Y-15481936D02*
X14947468Y-15472412D01*
X15023658Y-15567650D02*
X15023658Y-15700984D01*
X15023658Y-15586698D02*
X15033182Y-15577174D01*
X15033182Y-15577174D02*
X15052230Y-15567650D01*
X15052230Y-15567650D02*
X15080801Y-15567650D01*
X15080801Y-15567650D02*
X15099849Y-15577174D01*
X15099849Y-15577174D02*
X15109372Y-15596222D01*
X15109372Y-15596222D02*
X15109372Y-15700984D01*
X15233182Y-15700984D02*
X15214134Y-15691460D01*
X15214134Y-15691460D02*
X15204611Y-15681936D01*
X15204611Y-15681936D02*
X15195087Y-15662888D01*
X15195087Y-15662888D02*
X15195087Y-15605746D01*
X15195087Y-15605746D02*
X15204611Y-15586698D01*
X15204611Y-15586698D02*
X15214134Y-15577174D01*
X15214134Y-15577174D02*
X15233182Y-15567650D01*
X15233182Y-15567650D02*
X15261753Y-15567650D01*
X15261753Y-15567650D02*
X15280801Y-15577174D01*
X15280801Y-15577174D02*
X15290325Y-15586698D01*
X15290325Y-15586698D02*
X15299849Y-15605746D01*
X15299849Y-15605746D02*
X15299849Y-15662888D01*
X15299849Y-15662888D02*
X15290325Y-15681936D01*
X15290325Y-15681936D02*
X15280801Y-15691460D01*
X15280801Y-15691460D02*
X15261753Y-15700984D01*
X15261753Y-15700984D02*
X15233182Y-15700984D01*
X15356992Y-15567650D02*
X15433182Y-15567650D01*
X15385563Y-15500984D02*
X15385563Y-15672412D01*
X15385563Y-15672412D02*
X15395087Y-15691460D01*
X15395087Y-15691460D02*
X15414134Y-15700984D01*
X15414134Y-15700984D02*
X15433182Y-15700984D01*
X15652230Y-15567650D02*
X15652230Y-15767650D01*
X15652230Y-15577174D02*
X15671277Y-15567650D01*
X15671277Y-15567650D02*
X15709373Y-15567650D01*
X15709373Y-15567650D02*
X15728420Y-15577174D01*
X15728420Y-15577174D02*
X15737944Y-15586698D01*
X15737944Y-15586698D02*
X15747468Y-15605746D01*
X15747468Y-15605746D02*
X15747468Y-15662888D01*
X15747468Y-15662888D02*
X15737944Y-15681936D01*
X15737944Y-15681936D02*
X15728420Y-15691460D01*
X15728420Y-15691460D02*
X15709373Y-15700984D01*
X15709373Y-15700984D02*
X15671277Y-15700984D01*
X15671277Y-15700984D02*
X15652230Y-15691460D01*
X15861753Y-15700984D02*
X15842706Y-15691460D01*
X15842706Y-15691460D02*
X15833182Y-15672412D01*
X15833182Y-15672412D02*
X15833182Y-15500984D01*
X16023658Y-15700984D02*
X16023658Y-15596222D01*
X16023658Y-15596222D02*
X16014134Y-15577174D01*
X16014134Y-15577174D02*
X15995087Y-15567650D01*
X15995087Y-15567650D02*
X15956992Y-15567650D01*
X15956992Y-15567650D02*
X15937944Y-15577174D01*
X16023658Y-15691460D02*
X16004611Y-15700984D01*
X16004611Y-15700984D02*
X15956992Y-15700984D01*
X15956992Y-15700984D02*
X15937944Y-15691460D01*
X15937944Y-15691460D02*
X15928420Y-15672412D01*
X15928420Y-15672412D02*
X15928420Y-15653365D01*
X15928420Y-15653365D02*
X15937944Y-15634317D01*
X15937944Y-15634317D02*
X15956992Y-15624793D01*
X15956992Y-15624793D02*
X16004611Y-15624793D01*
X16004611Y-15624793D02*
X16023658Y-15615269D01*
X16090325Y-15567650D02*
X16166515Y-15567650D01*
X16118896Y-15500984D02*
X16118896Y-15672412D01*
X16118896Y-15672412D02*
X16128420Y-15691460D01*
X16128420Y-15691460D02*
X16147468Y-15700984D01*
X16147468Y-15700984D02*
X16166515Y-15700984D01*
X16309373Y-15691460D02*
X16290325Y-15700984D01*
X16290325Y-15700984D02*
X16252230Y-15700984D01*
X16252230Y-15700984D02*
X16233182Y-15691460D01*
X16233182Y-15691460D02*
X16223658Y-15672412D01*
X16223658Y-15672412D02*
X16223658Y-15596222D01*
X16223658Y-15596222D02*
X16233182Y-15577174D01*
X16233182Y-15577174D02*
X16252230Y-15567650D01*
X16252230Y-15567650D02*
X16290325Y-15567650D01*
X16290325Y-15567650D02*
X16309373Y-15577174D01*
X16309373Y-15577174D02*
X16318896Y-15596222D01*
X16318896Y-15596222D02*
X16318896Y-15615269D01*
X16318896Y-15615269D02*
X16223658Y-15634317D01*
X16490325Y-15700984D02*
X16490325Y-15500984D01*
X16490325Y-15691460D02*
X16471277Y-15700984D01*
X16471277Y-15700984D02*
X16433182Y-15700984D01*
X16433182Y-15700984D02*
X16414134Y-15691460D01*
X16414134Y-15691460D02*
X16404611Y-15681936D01*
X16404611Y-15681936D02*
X16395087Y-15662888D01*
X16395087Y-15662888D02*
X16395087Y-15605746D01*
X16395087Y-15605746D02*
X16404611Y-15586698D01*
X16404611Y-15586698D02*
X16414134Y-15577174D01*
X16414134Y-15577174D02*
X16433182Y-15567650D01*
X16433182Y-15567650D02*
X16471277Y-15567650D01*
X16471277Y-15567650D02*
X16490325Y-15577174D01*
X16566515Y-15777174D02*
X16576039Y-15767650D01*
X16576039Y-15767650D02*
X16595087Y-15739079D01*
X16595087Y-15739079D02*
X16604611Y-15720031D01*
X16604611Y-15720031D02*
X16614134Y-15691460D01*
X16614134Y-15691460D02*
X16623658Y-15643841D01*
X16623658Y-15643841D02*
X16623658Y-15605746D01*
X16623658Y-15605746D02*
X16614134Y-15558127D01*
X16614134Y-15558127D02*
X16604611Y-15529555D01*
X16604611Y-15529555D02*
X16595087Y-15510508D01*
X16595087Y-15510508D02*
X16576039Y-15481936D01*
X16576039Y-15481936D02*
X16566515Y-15472412D01*
X9810500Y-15873500D02*
G75*
G02*
X9610500Y-15873500I-100000J0D01*
G01*
X9610500Y-15873500D02*
G75*
G02*
X9810500Y-15873500I100000J0D01*
G01*
X10061753Y-15784031D02*
X10071277Y-15774508D01*
X10071277Y-15774508D02*
X10090324Y-15764984D01*
X10090324Y-15764984D02*
X10137944Y-15764984D01*
X10137944Y-15764984D02*
X10156991Y-15774508D01*
X10156991Y-15774508D02*
X10166515Y-15784031D01*
X10166515Y-15784031D02*
X10176039Y-15803079D01*
X10176039Y-15803079D02*
X10176039Y-15822127D01*
X10176039Y-15822127D02*
X10166515Y-15850698D01*
X10166515Y-15850698D02*
X10052229Y-15964984D01*
X10052229Y-15964984D02*
X10176039Y-15964984D01*
X10261753Y-15945936D02*
X10271277Y-15955460D01*
X10271277Y-15955460D02*
X10261753Y-15964984D01*
X10261753Y-15964984D02*
X10252229Y-15955460D01*
X10252229Y-15955460D02*
X10261753Y-15945936D01*
X10261753Y-15945936D02*
X10261753Y-15964984D01*
X10442705Y-15764984D02*
X10404610Y-15764984D01*
X10404610Y-15764984D02*
X10385563Y-15774508D01*
X10385563Y-15774508D02*
X10376039Y-15784031D01*
X10376039Y-15784031D02*
X10356991Y-15812603D01*
X10356991Y-15812603D02*
X10347467Y-15850698D01*
X10347467Y-15850698D02*
X10347467Y-15926888D01*
X10347467Y-15926888D02*
X10356991Y-15945936D01*
X10356991Y-15945936D02*
X10366515Y-15955460D01*
X10366515Y-15955460D02*
X10385563Y-15964984D01*
X10385563Y-15964984D02*
X10423658Y-15964984D01*
X10423658Y-15964984D02*
X10442705Y-15955460D01*
X10442705Y-15955460D02*
X10452229Y-15945936D01*
X10452229Y-15945936D02*
X10461753Y-15926888D01*
X10461753Y-15926888D02*
X10461753Y-15879269D01*
X10461753Y-15879269D02*
X10452229Y-15860222D01*
X10452229Y-15860222D02*
X10442705Y-15850698D01*
X10442705Y-15850698D02*
X10423658Y-15841174D01*
X10423658Y-15841174D02*
X10385563Y-15841174D01*
X10385563Y-15841174D02*
X10366515Y-15850698D01*
X10366515Y-15850698D02*
X10356991Y-15860222D01*
X10356991Y-15860222D02*
X10347467Y-15879269D01*
X10585563Y-15764984D02*
X10604610Y-15764984D01*
X10604610Y-15764984D02*
X10623658Y-15774508D01*
X10623658Y-15774508D02*
X10633182Y-15784031D01*
X10633182Y-15784031D02*
X10642705Y-15803079D01*
X10642705Y-15803079D02*
X10652229Y-15841174D01*
X10652229Y-15841174D02*
X10652229Y-15888793D01*
X10652229Y-15888793D02*
X10642705Y-15926888D01*
X10642705Y-15926888D02*
X10633182Y-15945936D01*
X10633182Y-15945936D02*
X10623658Y-15955460D01*
X10623658Y-15955460D02*
X10604610Y-15964984D01*
X10604610Y-15964984D02*
X10585563Y-15964984D01*
X10585563Y-15964984D02*
X10566515Y-15955460D01*
X10566515Y-15955460D02*
X10556991Y-15945936D01*
X10556991Y-15945936D02*
X10547467Y-15926888D01*
X10547467Y-15926888D02*
X10537944Y-15888793D01*
X10537944Y-15888793D02*
X10537944Y-15841174D01*
X10537944Y-15841174D02*
X10547467Y-15803079D01*
X10547467Y-15803079D02*
X10556991Y-15784031D01*
X10556991Y-15784031D02*
X10566515Y-15774508D01*
X10566515Y-15774508D02*
X10585563Y-15764984D01*
X10776039Y-15764984D02*
X10795086Y-15764984D01*
X10795086Y-15764984D02*
X10814134Y-15774508D01*
X10814134Y-15774508D02*
X10823658Y-15784031D01*
X10823658Y-15784031D02*
X10833182Y-15803079D01*
X10833182Y-15803079D02*
X10842705Y-15841174D01*
X10842705Y-15841174D02*
X10842705Y-15888793D01*
X10842705Y-15888793D02*
X10833182Y-15926888D01*
X10833182Y-15926888D02*
X10823658Y-15945936D01*
X10823658Y-15945936D02*
X10814134Y-15955460D01*
X10814134Y-15955460D02*
X10795086Y-15964984D01*
X10795086Y-15964984D02*
X10776039Y-15964984D01*
X10776039Y-15964984D02*
X10756991Y-15955460D01*
X10756991Y-15955460D02*
X10747467Y-15945936D01*
X10747467Y-15945936D02*
X10737944Y-15926888D01*
X10737944Y-15926888D02*
X10728420Y-15888793D01*
X10728420Y-15888793D02*
X10728420Y-15841174D01*
X10728420Y-15841174D02*
X10737944Y-15803079D01*
X10737944Y-15803079D02*
X10747467Y-15784031D01*
X10747467Y-15784031D02*
X10756991Y-15774508D01*
X10756991Y-15774508D02*
X10776039Y-15764984D01*
X10928420Y-15964984D02*
X10928420Y-15831650D01*
X10928420Y-15850698D02*
X10937944Y-15841174D01*
X10937944Y-15841174D02*
X10956991Y-15831650D01*
X10956991Y-15831650D02*
X10985563Y-15831650D01*
X10985563Y-15831650D02*
X11004610Y-15841174D01*
X11004610Y-15841174D02*
X11014134Y-15860222D01*
X11014134Y-15860222D02*
X11014134Y-15964984D01*
X11014134Y-15860222D02*
X11023658Y-15841174D01*
X11023658Y-15841174D02*
X11042705Y-15831650D01*
X11042705Y-15831650D02*
X11071277Y-15831650D01*
X11071277Y-15831650D02*
X11090325Y-15841174D01*
X11090325Y-15841174D02*
X11099848Y-15860222D01*
X11099848Y-15860222D02*
X11099848Y-15964984D01*
X11195086Y-15964984D02*
X11195086Y-15831650D01*
X11195086Y-15850698D02*
X11204610Y-15841174D01*
X11204610Y-15841174D02*
X11223658Y-15831650D01*
X11223658Y-15831650D02*
X11252229Y-15831650D01*
X11252229Y-15831650D02*
X11271277Y-15841174D01*
X11271277Y-15841174D02*
X11280801Y-15860222D01*
X11280801Y-15860222D02*
X11280801Y-15964984D01*
X11280801Y-15860222D02*
X11290324Y-15841174D01*
X11290324Y-15841174D02*
X11309372Y-15831650D01*
X11309372Y-15831650D02*
X11337943Y-15831650D01*
X11337943Y-15831650D02*
X11356991Y-15841174D01*
X11356991Y-15841174D02*
X11366515Y-15860222D01*
X11366515Y-15860222D02*
X11366515Y-15964984D01*
X11756991Y-15755460D02*
X11585563Y-16012603D01*
X12014134Y-15764984D02*
X12033182Y-15764984D01*
X12033182Y-15764984D02*
X12052229Y-15774508D01*
X12052229Y-15774508D02*
X12061753Y-15784031D01*
X12061753Y-15784031D02*
X12071277Y-15803079D01*
X12071277Y-15803079D02*
X12080801Y-15841174D01*
X12080801Y-15841174D02*
X12080801Y-15888793D01*
X12080801Y-15888793D02*
X12071277Y-15926888D01*
X12071277Y-15926888D02*
X12061753Y-15945936D01*
X12061753Y-15945936D02*
X12052229Y-15955460D01*
X12052229Y-15955460D02*
X12033182Y-15964984D01*
X12033182Y-15964984D02*
X12014134Y-15964984D01*
X12014134Y-15964984D02*
X11995086Y-15955460D01*
X11995086Y-15955460D02*
X11985563Y-15945936D01*
X11985563Y-15945936D02*
X11976039Y-15926888D01*
X11976039Y-15926888D02*
X11966515Y-15888793D01*
X11966515Y-15888793D02*
X11966515Y-15841174D01*
X11966515Y-15841174D02*
X11976039Y-15803079D01*
X11976039Y-15803079D02*
X11985563Y-15784031D01*
X11985563Y-15784031D02*
X11995086Y-15774508D01*
X11995086Y-15774508D02*
X12014134Y-15764984D01*
X12166515Y-15945936D02*
X12176039Y-15955460D01*
X12176039Y-15955460D02*
X12166515Y-15964984D01*
X12166515Y-15964984D02*
X12156991Y-15955460D01*
X12156991Y-15955460D02*
X12166515Y-15945936D01*
X12166515Y-15945936D02*
X12166515Y-15964984D01*
X12366515Y-15964984D02*
X12252229Y-15964984D01*
X12309372Y-15964984D02*
X12309372Y-15764984D01*
X12309372Y-15764984D02*
X12290325Y-15793555D01*
X12290325Y-15793555D02*
X12271277Y-15812603D01*
X12271277Y-15812603D02*
X12252229Y-15822127D01*
X12490325Y-15764984D02*
X12509372Y-15764984D01*
X12509372Y-15764984D02*
X12528420Y-15774508D01*
X12528420Y-15774508D02*
X12537944Y-15784031D01*
X12537944Y-15784031D02*
X12547467Y-15803079D01*
X12547467Y-15803079D02*
X12556991Y-15841174D01*
X12556991Y-15841174D02*
X12556991Y-15888793D01*
X12556991Y-15888793D02*
X12547467Y-15926888D01*
X12547467Y-15926888D02*
X12537944Y-15945936D01*
X12537944Y-15945936D02*
X12528420Y-15955460D01*
X12528420Y-15955460D02*
X12509372Y-15964984D01*
X12509372Y-15964984D02*
X12490325Y-15964984D01*
X12490325Y-15964984D02*
X12471277Y-15955460D01*
X12471277Y-15955460D02*
X12461753Y-15945936D01*
X12461753Y-15945936D02*
X12452229Y-15926888D01*
X12452229Y-15926888D02*
X12442706Y-15888793D01*
X12442706Y-15888793D02*
X12442706Y-15841174D01*
X12442706Y-15841174D02*
X12452229Y-15803079D01*
X12452229Y-15803079D02*
X12461753Y-15784031D01*
X12461753Y-15784031D02*
X12471277Y-15774508D01*
X12471277Y-15774508D02*
X12490325Y-15764984D01*
X12633182Y-15784031D02*
X12642706Y-15774508D01*
X12642706Y-15774508D02*
X12661753Y-15764984D01*
X12661753Y-15764984D02*
X12709372Y-15764984D01*
X12709372Y-15764984D02*
X12728420Y-15774508D01*
X12728420Y-15774508D02*
X12737944Y-15784031D01*
X12737944Y-15784031D02*
X12747467Y-15803079D01*
X12747467Y-15803079D02*
X12747467Y-15822127D01*
X12747467Y-15822127D02*
X12737944Y-15850698D01*
X12737944Y-15850698D02*
X12623658Y-15964984D01*
X12623658Y-15964984D02*
X12747467Y-15964984D01*
X12918896Y-15831650D02*
X12918896Y-15964984D01*
X12871277Y-15755460D02*
X12823658Y-15898317D01*
X12823658Y-15898317D02*
X12947467Y-15898317D01*
X13014134Y-15764984D02*
X13014134Y-15803079D01*
X13090325Y-15764984D02*
X13090325Y-15803079D01*
X13385563Y-16041174D02*
X13376039Y-16031650D01*
X13376039Y-16031650D02*
X13356991Y-16003079D01*
X13356991Y-16003079D02*
X13347468Y-15984031D01*
X13347468Y-15984031D02*
X13337944Y-15955460D01*
X13337944Y-15955460D02*
X13328420Y-15907841D01*
X13328420Y-15907841D02*
X13328420Y-15869746D01*
X13328420Y-15869746D02*
X13337944Y-15822127D01*
X13337944Y-15822127D02*
X13347468Y-15793555D01*
X13347468Y-15793555D02*
X13356991Y-15774508D01*
X13356991Y-15774508D02*
X13376039Y-15745936D01*
X13376039Y-15745936D02*
X13385563Y-15736412D01*
X13452229Y-15784031D02*
X13461753Y-15774508D01*
X13461753Y-15774508D02*
X13480801Y-15764984D01*
X13480801Y-15764984D02*
X13528420Y-15764984D01*
X13528420Y-15764984D02*
X13547468Y-15774508D01*
X13547468Y-15774508D02*
X13556991Y-15784031D01*
X13556991Y-15784031D02*
X13566515Y-15803079D01*
X13566515Y-15803079D02*
X13566515Y-15822127D01*
X13566515Y-15822127D02*
X13556991Y-15850698D01*
X13556991Y-15850698D02*
X13442706Y-15964984D01*
X13442706Y-15964984D02*
X13566515Y-15964984D01*
X13804610Y-15964984D02*
X13804610Y-15764984D01*
X13890325Y-15964984D02*
X13890325Y-15860222D01*
X13890325Y-15860222D02*
X13880801Y-15841174D01*
X13880801Y-15841174D02*
X13861753Y-15831650D01*
X13861753Y-15831650D02*
X13833182Y-15831650D01*
X13833182Y-15831650D02*
X13814134Y-15841174D01*
X13814134Y-15841174D02*
X13804610Y-15850698D01*
X14014134Y-15964984D02*
X13995087Y-15955460D01*
X13995087Y-15955460D02*
X13985563Y-15945936D01*
X13985563Y-15945936D02*
X13976039Y-15926888D01*
X13976039Y-15926888D02*
X13976039Y-15869746D01*
X13976039Y-15869746D02*
X13985563Y-15850698D01*
X13985563Y-15850698D02*
X13995087Y-15841174D01*
X13995087Y-15841174D02*
X14014134Y-15831650D01*
X14014134Y-15831650D02*
X14042706Y-15831650D01*
X14042706Y-15831650D02*
X14061753Y-15841174D01*
X14061753Y-15841174D02*
X14071277Y-15850698D01*
X14071277Y-15850698D02*
X14080801Y-15869746D01*
X14080801Y-15869746D02*
X14080801Y-15926888D01*
X14080801Y-15926888D02*
X14071277Y-15945936D01*
X14071277Y-15945936D02*
X14061753Y-15955460D01*
X14061753Y-15955460D02*
X14042706Y-15964984D01*
X14042706Y-15964984D02*
X14014134Y-15964984D01*
X14195087Y-15964984D02*
X14176039Y-15955460D01*
X14176039Y-15955460D02*
X14166515Y-15936412D01*
X14166515Y-15936412D02*
X14166515Y-15764984D01*
X14347468Y-15955460D02*
X14328420Y-15964984D01*
X14328420Y-15964984D02*
X14290325Y-15964984D01*
X14290325Y-15964984D02*
X14271277Y-15955460D01*
X14271277Y-15955460D02*
X14261753Y-15936412D01*
X14261753Y-15936412D02*
X14261753Y-15860222D01*
X14261753Y-15860222D02*
X14271277Y-15841174D01*
X14271277Y-15841174D02*
X14290325Y-15831650D01*
X14290325Y-15831650D02*
X14328420Y-15831650D01*
X14328420Y-15831650D02*
X14347468Y-15841174D01*
X14347468Y-15841174D02*
X14356991Y-15860222D01*
X14356991Y-15860222D02*
X14356991Y-15879269D01*
X14356991Y-15879269D02*
X14261753Y-15898317D01*
X14433182Y-15955460D02*
X14452230Y-15964984D01*
X14452230Y-15964984D02*
X14490325Y-15964984D01*
X14490325Y-15964984D02*
X14509372Y-15955460D01*
X14509372Y-15955460D02*
X14518896Y-15936412D01*
X14518896Y-15936412D02*
X14518896Y-15926888D01*
X14518896Y-15926888D02*
X14509372Y-15907841D01*
X14509372Y-15907841D02*
X14490325Y-15898317D01*
X14490325Y-15898317D02*
X14461753Y-15898317D01*
X14461753Y-15898317D02*
X14442706Y-15888793D01*
X14442706Y-15888793D02*
X14433182Y-15869746D01*
X14433182Y-15869746D02*
X14433182Y-15860222D01*
X14433182Y-15860222D02*
X14442706Y-15841174D01*
X14442706Y-15841174D02*
X14461753Y-15831650D01*
X14461753Y-15831650D02*
X14490325Y-15831650D01*
X14490325Y-15831650D02*
X14509372Y-15841174D01*
X14585563Y-16041174D02*
X14595087Y-16031650D01*
X14595087Y-16031650D02*
X14614134Y-16003079D01*
X14614134Y-16003079D02*
X14623658Y-15984031D01*
X14623658Y-15984031D02*
X14633182Y-15955460D01*
X14633182Y-15955460D02*
X14642706Y-15907841D01*
X14642706Y-15907841D02*
X14642706Y-15869746D01*
X14642706Y-15869746D02*
X14633182Y-15822127D01*
X14633182Y-15822127D02*
X14623658Y-15793555D01*
X14623658Y-15793555D02*
X14614134Y-15774508D01*
X14614134Y-15774508D02*
X14595087Y-15745936D01*
X14595087Y-15745936D02*
X14585563Y-15736412D01*
X14947468Y-16041174D02*
X14937944Y-16031650D01*
X14937944Y-16031650D02*
X14918896Y-16003079D01*
X14918896Y-16003079D02*
X14909372Y-15984031D01*
X14909372Y-15984031D02*
X14899849Y-15955460D01*
X14899849Y-15955460D02*
X14890325Y-15907841D01*
X14890325Y-15907841D02*
X14890325Y-15869746D01*
X14890325Y-15869746D02*
X14899849Y-15822127D01*
X14899849Y-15822127D02*
X14909372Y-15793555D01*
X14909372Y-15793555D02*
X14918896Y-15774508D01*
X14918896Y-15774508D02*
X14937944Y-15745936D01*
X14937944Y-15745936D02*
X14947468Y-15736412D01*
X15023658Y-15831650D02*
X15023658Y-15964984D01*
X15023658Y-15850698D02*
X15033182Y-15841174D01*
X15033182Y-15841174D02*
X15052230Y-15831650D01*
X15052230Y-15831650D02*
X15080801Y-15831650D01*
X15080801Y-15831650D02*
X15099849Y-15841174D01*
X15099849Y-15841174D02*
X15109372Y-15860222D01*
X15109372Y-15860222D02*
X15109372Y-15964984D01*
X15233182Y-15964984D02*
X15214134Y-15955460D01*
X15214134Y-15955460D02*
X15204611Y-15945936D01*
X15204611Y-15945936D02*
X15195087Y-15926888D01*
X15195087Y-15926888D02*
X15195087Y-15869746D01*
X15195087Y-15869746D02*
X15204611Y-15850698D01*
X15204611Y-15850698D02*
X15214134Y-15841174D01*
X15214134Y-15841174D02*
X15233182Y-15831650D01*
X15233182Y-15831650D02*
X15261753Y-15831650D01*
X15261753Y-15831650D02*
X15280801Y-15841174D01*
X15280801Y-15841174D02*
X15290325Y-15850698D01*
X15290325Y-15850698D02*
X15299849Y-15869746D01*
X15299849Y-15869746D02*
X15299849Y-15926888D01*
X15299849Y-15926888D02*
X15290325Y-15945936D01*
X15290325Y-15945936D02*
X15280801Y-15955460D01*
X15280801Y-15955460D02*
X15261753Y-15964984D01*
X15261753Y-15964984D02*
X15233182Y-15964984D01*
X15356992Y-15831650D02*
X15433182Y-15831650D01*
X15385563Y-15764984D02*
X15385563Y-15936412D01*
X15385563Y-15936412D02*
X15395087Y-15955460D01*
X15395087Y-15955460D02*
X15414134Y-15964984D01*
X15414134Y-15964984D02*
X15433182Y-15964984D01*
X15652230Y-15831650D02*
X15652230Y-16031650D01*
X15652230Y-15841174D02*
X15671277Y-15831650D01*
X15671277Y-15831650D02*
X15709373Y-15831650D01*
X15709373Y-15831650D02*
X15728420Y-15841174D01*
X15728420Y-15841174D02*
X15737944Y-15850698D01*
X15737944Y-15850698D02*
X15747468Y-15869746D01*
X15747468Y-15869746D02*
X15747468Y-15926888D01*
X15747468Y-15926888D02*
X15737944Y-15945936D01*
X15737944Y-15945936D02*
X15728420Y-15955460D01*
X15728420Y-15955460D02*
X15709373Y-15964984D01*
X15709373Y-15964984D02*
X15671277Y-15964984D01*
X15671277Y-15964984D02*
X15652230Y-15955460D01*
X15861753Y-15964984D02*
X15842706Y-15955460D01*
X15842706Y-15955460D02*
X15833182Y-15936412D01*
X15833182Y-15936412D02*
X15833182Y-15764984D01*
X16023658Y-15964984D02*
X16023658Y-15860222D01*
X16023658Y-15860222D02*
X16014134Y-15841174D01*
X16014134Y-15841174D02*
X15995087Y-15831650D01*
X15995087Y-15831650D02*
X15956992Y-15831650D01*
X15956992Y-15831650D02*
X15937944Y-15841174D01*
X16023658Y-15955460D02*
X16004611Y-15964984D01*
X16004611Y-15964984D02*
X15956992Y-15964984D01*
X15956992Y-15964984D02*
X15937944Y-15955460D01*
X15937944Y-15955460D02*
X15928420Y-15936412D01*
X15928420Y-15936412D02*
X15928420Y-15917365D01*
X15928420Y-15917365D02*
X15937944Y-15898317D01*
X15937944Y-15898317D02*
X15956992Y-15888793D01*
X15956992Y-15888793D02*
X16004611Y-15888793D01*
X16004611Y-15888793D02*
X16023658Y-15879269D01*
X16090325Y-15831650D02*
X16166515Y-15831650D01*
X16118896Y-15764984D02*
X16118896Y-15936412D01*
X16118896Y-15936412D02*
X16128420Y-15955460D01*
X16128420Y-15955460D02*
X16147468Y-15964984D01*
X16147468Y-15964984D02*
X16166515Y-15964984D01*
X16309373Y-15955460D02*
X16290325Y-15964984D01*
X16290325Y-15964984D02*
X16252230Y-15964984D01*
X16252230Y-15964984D02*
X16233182Y-15955460D01*
X16233182Y-15955460D02*
X16223658Y-15936412D01*
X16223658Y-15936412D02*
X16223658Y-15860222D01*
X16223658Y-15860222D02*
X16233182Y-15841174D01*
X16233182Y-15841174D02*
X16252230Y-15831650D01*
X16252230Y-15831650D02*
X16290325Y-15831650D01*
X16290325Y-15831650D02*
X16309373Y-15841174D01*
X16309373Y-15841174D02*
X16318896Y-15860222D01*
X16318896Y-15860222D02*
X16318896Y-15879269D01*
X16318896Y-15879269D02*
X16223658Y-15898317D01*
X16490325Y-15964984D02*
X16490325Y-15764984D01*
X16490325Y-15955460D02*
X16471277Y-15964984D01*
X16471277Y-15964984D02*
X16433182Y-15964984D01*
X16433182Y-15964984D02*
X16414134Y-15955460D01*
X16414134Y-15955460D02*
X16404611Y-15945936D01*
X16404611Y-15945936D02*
X16395087Y-15926888D01*
X16395087Y-15926888D02*
X16395087Y-15869746D01*
X16395087Y-15869746D02*
X16404611Y-15850698D01*
X16404611Y-15850698D02*
X16414134Y-15841174D01*
X16414134Y-15841174D02*
X16433182Y-15831650D01*
X16433182Y-15831650D02*
X16471277Y-15831650D01*
X16471277Y-15831650D02*
X16490325Y-15841174D01*
X16566515Y-16041174D02*
X16576039Y-16031650D01*
X16576039Y-16031650D02*
X16595087Y-16003079D01*
X16595087Y-16003079D02*
X16604611Y-15984031D01*
X16604611Y-15984031D02*
X16614134Y-15955460D01*
X16614134Y-15955460D02*
X16623658Y-15907841D01*
X16623658Y-15907841D02*
X16623658Y-15869746D01*
X16623658Y-15869746D02*
X16614134Y-15822127D01*
X16614134Y-15822127D02*
X16604611Y-15793555D01*
X16604611Y-15793555D02*
X16595087Y-15774508D01*
X16595087Y-15774508D02*
X16576039Y-15745936D01*
X16576039Y-15745936D02*
X16566515Y-15736412D01*
X9710500Y-16093500D02*
X9710500Y-16293500D01*
X9610500Y-16193500D02*
X9810500Y-16193500D01*
X10061753Y-16104031D02*
X10071277Y-16094508D01*
X10071277Y-16094508D02*
X10090324Y-16084984D01*
X10090324Y-16084984D02*
X10137944Y-16084984D01*
X10137944Y-16084984D02*
X10156991Y-16094508D01*
X10156991Y-16094508D02*
X10166515Y-16104031D01*
X10166515Y-16104031D02*
X10176039Y-16123079D01*
X10176039Y-16123079D02*
X10176039Y-16142127D01*
X10176039Y-16142127D02*
X10166515Y-16170698D01*
X10166515Y-16170698D02*
X10052229Y-16284984D01*
X10052229Y-16284984D02*
X10176039Y-16284984D01*
X10261753Y-16265936D02*
X10271277Y-16275460D01*
X10271277Y-16275460D02*
X10261753Y-16284984D01*
X10261753Y-16284984D02*
X10252229Y-16275460D01*
X10252229Y-16275460D02*
X10261753Y-16265936D01*
X10261753Y-16265936D02*
X10261753Y-16284984D01*
X10385563Y-16170698D02*
X10366515Y-16161174D01*
X10366515Y-16161174D02*
X10356991Y-16151650D01*
X10356991Y-16151650D02*
X10347467Y-16132603D01*
X10347467Y-16132603D02*
X10347467Y-16123079D01*
X10347467Y-16123079D02*
X10356991Y-16104031D01*
X10356991Y-16104031D02*
X10366515Y-16094508D01*
X10366515Y-16094508D02*
X10385563Y-16084984D01*
X10385563Y-16084984D02*
X10423658Y-16084984D01*
X10423658Y-16084984D02*
X10442705Y-16094508D01*
X10442705Y-16094508D02*
X10452229Y-16104031D01*
X10452229Y-16104031D02*
X10461753Y-16123079D01*
X10461753Y-16123079D02*
X10461753Y-16132603D01*
X10461753Y-16132603D02*
X10452229Y-16151650D01*
X10452229Y-16151650D02*
X10442705Y-16161174D01*
X10442705Y-16161174D02*
X10423658Y-16170698D01*
X10423658Y-16170698D02*
X10385563Y-16170698D01*
X10385563Y-16170698D02*
X10366515Y-16180222D01*
X10366515Y-16180222D02*
X10356991Y-16189746D01*
X10356991Y-16189746D02*
X10347467Y-16208793D01*
X10347467Y-16208793D02*
X10347467Y-16246888D01*
X10347467Y-16246888D02*
X10356991Y-16265936D01*
X10356991Y-16265936D02*
X10366515Y-16275460D01*
X10366515Y-16275460D02*
X10385563Y-16284984D01*
X10385563Y-16284984D02*
X10423658Y-16284984D01*
X10423658Y-16284984D02*
X10442705Y-16275460D01*
X10442705Y-16275460D02*
X10452229Y-16265936D01*
X10452229Y-16265936D02*
X10461753Y-16246888D01*
X10461753Y-16246888D02*
X10461753Y-16208793D01*
X10461753Y-16208793D02*
X10452229Y-16189746D01*
X10452229Y-16189746D02*
X10442705Y-16180222D01*
X10442705Y-16180222D02*
X10423658Y-16170698D01*
X10585563Y-16084984D02*
X10604610Y-16084984D01*
X10604610Y-16084984D02*
X10623658Y-16094508D01*
X10623658Y-16094508D02*
X10633182Y-16104031D01*
X10633182Y-16104031D02*
X10642705Y-16123079D01*
X10642705Y-16123079D02*
X10652229Y-16161174D01*
X10652229Y-16161174D02*
X10652229Y-16208793D01*
X10652229Y-16208793D02*
X10642705Y-16246888D01*
X10642705Y-16246888D02*
X10633182Y-16265936D01*
X10633182Y-16265936D02*
X10623658Y-16275460D01*
X10623658Y-16275460D02*
X10604610Y-16284984D01*
X10604610Y-16284984D02*
X10585563Y-16284984D01*
X10585563Y-16284984D02*
X10566515Y-16275460D01*
X10566515Y-16275460D02*
X10556991Y-16265936D01*
X10556991Y-16265936D02*
X10547467Y-16246888D01*
X10547467Y-16246888D02*
X10537944Y-16208793D01*
X10537944Y-16208793D02*
X10537944Y-16161174D01*
X10537944Y-16161174D02*
X10547467Y-16123079D01*
X10547467Y-16123079D02*
X10556991Y-16104031D01*
X10556991Y-16104031D02*
X10566515Y-16094508D01*
X10566515Y-16094508D02*
X10585563Y-16084984D01*
X10776039Y-16084984D02*
X10795086Y-16084984D01*
X10795086Y-16084984D02*
X10814134Y-16094508D01*
X10814134Y-16094508D02*
X10823658Y-16104031D01*
X10823658Y-16104031D02*
X10833182Y-16123079D01*
X10833182Y-16123079D02*
X10842705Y-16161174D01*
X10842705Y-16161174D02*
X10842705Y-16208793D01*
X10842705Y-16208793D02*
X10833182Y-16246888D01*
X10833182Y-16246888D02*
X10823658Y-16265936D01*
X10823658Y-16265936D02*
X10814134Y-16275460D01*
X10814134Y-16275460D02*
X10795086Y-16284984D01*
X10795086Y-16284984D02*
X10776039Y-16284984D01*
X10776039Y-16284984D02*
X10756991Y-16275460D01*
X10756991Y-16275460D02*
X10747467Y-16265936D01*
X10747467Y-16265936D02*
X10737944Y-16246888D01*
X10737944Y-16246888D02*
X10728420Y-16208793D01*
X10728420Y-16208793D02*
X10728420Y-16161174D01*
X10728420Y-16161174D02*
X10737944Y-16123079D01*
X10737944Y-16123079D02*
X10747467Y-16104031D01*
X10747467Y-16104031D02*
X10756991Y-16094508D01*
X10756991Y-16094508D02*
X10776039Y-16084984D01*
X10928420Y-16284984D02*
X10928420Y-16151650D01*
X10928420Y-16170698D02*
X10937944Y-16161174D01*
X10937944Y-16161174D02*
X10956991Y-16151650D01*
X10956991Y-16151650D02*
X10985563Y-16151650D01*
X10985563Y-16151650D02*
X11004610Y-16161174D01*
X11004610Y-16161174D02*
X11014134Y-16180222D01*
X11014134Y-16180222D02*
X11014134Y-16284984D01*
X11014134Y-16180222D02*
X11023658Y-16161174D01*
X11023658Y-16161174D02*
X11042705Y-16151650D01*
X11042705Y-16151650D02*
X11071277Y-16151650D01*
X11071277Y-16151650D02*
X11090325Y-16161174D01*
X11090325Y-16161174D02*
X11099848Y-16180222D01*
X11099848Y-16180222D02*
X11099848Y-16284984D01*
X11195086Y-16284984D02*
X11195086Y-16151650D01*
X11195086Y-16170698D02*
X11204610Y-16161174D01*
X11204610Y-16161174D02*
X11223658Y-16151650D01*
X11223658Y-16151650D02*
X11252229Y-16151650D01*
X11252229Y-16151650D02*
X11271277Y-16161174D01*
X11271277Y-16161174D02*
X11280801Y-16180222D01*
X11280801Y-16180222D02*
X11280801Y-16284984D01*
X11280801Y-16180222D02*
X11290324Y-16161174D01*
X11290324Y-16161174D02*
X11309372Y-16151650D01*
X11309372Y-16151650D02*
X11337943Y-16151650D01*
X11337943Y-16151650D02*
X11356991Y-16161174D01*
X11356991Y-16161174D02*
X11366515Y-16180222D01*
X11366515Y-16180222D02*
X11366515Y-16284984D01*
X11756991Y-16075460D02*
X11585563Y-16332603D01*
X12014134Y-16084984D02*
X12033182Y-16084984D01*
X12033182Y-16084984D02*
X12052229Y-16094508D01*
X12052229Y-16094508D02*
X12061753Y-16104031D01*
X12061753Y-16104031D02*
X12071277Y-16123079D01*
X12071277Y-16123079D02*
X12080801Y-16161174D01*
X12080801Y-16161174D02*
X12080801Y-16208793D01*
X12080801Y-16208793D02*
X12071277Y-16246888D01*
X12071277Y-16246888D02*
X12061753Y-16265936D01*
X12061753Y-16265936D02*
X12052229Y-16275460D01*
X12052229Y-16275460D02*
X12033182Y-16284984D01*
X12033182Y-16284984D02*
X12014134Y-16284984D01*
X12014134Y-16284984D02*
X11995086Y-16275460D01*
X11995086Y-16275460D02*
X11985563Y-16265936D01*
X11985563Y-16265936D02*
X11976039Y-16246888D01*
X11976039Y-16246888D02*
X11966515Y-16208793D01*
X11966515Y-16208793D02*
X11966515Y-16161174D01*
X11966515Y-16161174D02*
X11976039Y-16123079D01*
X11976039Y-16123079D02*
X11985563Y-16104031D01*
X11985563Y-16104031D02*
X11995086Y-16094508D01*
X11995086Y-16094508D02*
X12014134Y-16084984D01*
X12166515Y-16265936D02*
X12176039Y-16275460D01*
X12176039Y-16275460D02*
X12166515Y-16284984D01*
X12166515Y-16284984D02*
X12156991Y-16275460D01*
X12156991Y-16275460D02*
X12166515Y-16265936D01*
X12166515Y-16265936D02*
X12166515Y-16284984D01*
X12366515Y-16284984D02*
X12252229Y-16284984D01*
X12309372Y-16284984D02*
X12309372Y-16084984D01*
X12309372Y-16084984D02*
X12290325Y-16113555D01*
X12290325Y-16113555D02*
X12271277Y-16132603D01*
X12271277Y-16132603D02*
X12252229Y-16142127D01*
X12556991Y-16284984D02*
X12442706Y-16284984D01*
X12499848Y-16284984D02*
X12499848Y-16084984D01*
X12499848Y-16084984D02*
X12480801Y-16113555D01*
X12480801Y-16113555D02*
X12461753Y-16132603D01*
X12461753Y-16132603D02*
X12442706Y-16142127D01*
X12680801Y-16084984D02*
X12699848Y-16084984D01*
X12699848Y-16084984D02*
X12718896Y-16094508D01*
X12718896Y-16094508D02*
X12728420Y-16104031D01*
X12728420Y-16104031D02*
X12737944Y-16123079D01*
X12737944Y-16123079D02*
X12747467Y-16161174D01*
X12747467Y-16161174D02*
X12747467Y-16208793D01*
X12747467Y-16208793D02*
X12737944Y-16246888D01*
X12737944Y-16246888D02*
X12728420Y-16265936D01*
X12728420Y-16265936D02*
X12718896Y-16275460D01*
X12718896Y-16275460D02*
X12699848Y-16284984D01*
X12699848Y-16284984D02*
X12680801Y-16284984D01*
X12680801Y-16284984D02*
X12661753Y-16275460D01*
X12661753Y-16275460D02*
X12652229Y-16265936D01*
X12652229Y-16265936D02*
X12642706Y-16246888D01*
X12642706Y-16246888D02*
X12633182Y-16208793D01*
X12633182Y-16208793D02*
X12633182Y-16161174D01*
X12633182Y-16161174D02*
X12642706Y-16123079D01*
X12642706Y-16123079D02*
X12652229Y-16104031D01*
X12652229Y-16104031D02*
X12661753Y-16094508D01*
X12661753Y-16094508D02*
X12680801Y-16084984D01*
X12823658Y-16104031D02*
X12833182Y-16094508D01*
X12833182Y-16094508D02*
X12852229Y-16084984D01*
X12852229Y-16084984D02*
X12899848Y-16084984D01*
X12899848Y-16084984D02*
X12918896Y-16094508D01*
X12918896Y-16094508D02*
X12928420Y-16104031D01*
X12928420Y-16104031D02*
X12937944Y-16123079D01*
X12937944Y-16123079D02*
X12937944Y-16142127D01*
X12937944Y-16142127D02*
X12928420Y-16170698D01*
X12928420Y-16170698D02*
X12814134Y-16284984D01*
X12814134Y-16284984D02*
X12937944Y-16284984D01*
X13014134Y-16084984D02*
X13014134Y-16123079D01*
X13090325Y-16084984D02*
X13090325Y-16123079D01*
X13385563Y-16361174D02*
X13376039Y-16351650D01*
X13376039Y-16351650D02*
X13356991Y-16323079D01*
X13356991Y-16323079D02*
X13347468Y-16304031D01*
X13347468Y-16304031D02*
X13337944Y-16275460D01*
X13337944Y-16275460D02*
X13328420Y-16227841D01*
X13328420Y-16227841D02*
X13328420Y-16189746D01*
X13328420Y-16189746D02*
X13337944Y-16142127D01*
X13337944Y-16142127D02*
X13347468Y-16113555D01*
X13347468Y-16113555D02*
X13356991Y-16094508D01*
X13356991Y-16094508D02*
X13376039Y-16065936D01*
X13376039Y-16065936D02*
X13385563Y-16056412D01*
X13442706Y-16084984D02*
X13566515Y-16084984D01*
X13566515Y-16084984D02*
X13499848Y-16161174D01*
X13499848Y-16161174D02*
X13528420Y-16161174D01*
X13528420Y-16161174D02*
X13547468Y-16170698D01*
X13547468Y-16170698D02*
X13556991Y-16180222D01*
X13556991Y-16180222D02*
X13566515Y-16199269D01*
X13566515Y-16199269D02*
X13566515Y-16246888D01*
X13566515Y-16246888D02*
X13556991Y-16265936D01*
X13556991Y-16265936D02*
X13547468Y-16275460D01*
X13547468Y-16275460D02*
X13528420Y-16284984D01*
X13528420Y-16284984D02*
X13471277Y-16284984D01*
X13471277Y-16284984D02*
X13452229Y-16275460D01*
X13452229Y-16275460D02*
X13442706Y-16265936D01*
X13804610Y-16284984D02*
X13804610Y-16084984D01*
X13890325Y-16284984D02*
X13890325Y-16180222D01*
X13890325Y-16180222D02*
X13880801Y-16161174D01*
X13880801Y-16161174D02*
X13861753Y-16151650D01*
X13861753Y-16151650D02*
X13833182Y-16151650D01*
X13833182Y-16151650D02*
X13814134Y-16161174D01*
X13814134Y-16161174D02*
X13804610Y-16170698D01*
X14014134Y-16284984D02*
X13995087Y-16275460D01*
X13995087Y-16275460D02*
X13985563Y-16265936D01*
X13985563Y-16265936D02*
X13976039Y-16246888D01*
X13976039Y-16246888D02*
X13976039Y-16189746D01*
X13976039Y-16189746D02*
X13985563Y-16170698D01*
X13985563Y-16170698D02*
X13995087Y-16161174D01*
X13995087Y-16161174D02*
X14014134Y-16151650D01*
X14014134Y-16151650D02*
X14042706Y-16151650D01*
X14042706Y-16151650D02*
X14061753Y-16161174D01*
X14061753Y-16161174D02*
X14071277Y-16170698D01*
X14071277Y-16170698D02*
X14080801Y-16189746D01*
X14080801Y-16189746D02*
X14080801Y-16246888D01*
X14080801Y-16246888D02*
X14071277Y-16265936D01*
X14071277Y-16265936D02*
X14061753Y-16275460D01*
X14061753Y-16275460D02*
X14042706Y-16284984D01*
X14042706Y-16284984D02*
X14014134Y-16284984D01*
X14195087Y-16284984D02*
X14176039Y-16275460D01*
X14176039Y-16275460D02*
X14166515Y-16256412D01*
X14166515Y-16256412D02*
X14166515Y-16084984D01*
X14347468Y-16275460D02*
X14328420Y-16284984D01*
X14328420Y-16284984D02*
X14290325Y-16284984D01*
X14290325Y-16284984D02*
X14271277Y-16275460D01*
X14271277Y-16275460D02*
X14261753Y-16256412D01*
X14261753Y-16256412D02*
X14261753Y-16180222D01*
X14261753Y-16180222D02*
X14271277Y-16161174D01*
X14271277Y-16161174D02*
X14290325Y-16151650D01*
X14290325Y-16151650D02*
X14328420Y-16151650D01*
X14328420Y-16151650D02*
X14347468Y-16161174D01*
X14347468Y-16161174D02*
X14356991Y-16180222D01*
X14356991Y-16180222D02*
X14356991Y-16199269D01*
X14356991Y-16199269D02*
X14261753Y-16218317D01*
X14433182Y-16275460D02*
X14452230Y-16284984D01*
X14452230Y-16284984D02*
X14490325Y-16284984D01*
X14490325Y-16284984D02*
X14509372Y-16275460D01*
X14509372Y-16275460D02*
X14518896Y-16256412D01*
X14518896Y-16256412D02*
X14518896Y-16246888D01*
X14518896Y-16246888D02*
X14509372Y-16227841D01*
X14509372Y-16227841D02*
X14490325Y-16218317D01*
X14490325Y-16218317D02*
X14461753Y-16218317D01*
X14461753Y-16218317D02*
X14442706Y-16208793D01*
X14442706Y-16208793D02*
X14433182Y-16189746D01*
X14433182Y-16189746D02*
X14433182Y-16180222D01*
X14433182Y-16180222D02*
X14442706Y-16161174D01*
X14442706Y-16161174D02*
X14461753Y-16151650D01*
X14461753Y-16151650D02*
X14490325Y-16151650D01*
X14490325Y-16151650D02*
X14509372Y-16161174D01*
X14585563Y-16361174D02*
X14595087Y-16351650D01*
X14595087Y-16351650D02*
X14614134Y-16323079D01*
X14614134Y-16323079D02*
X14623658Y-16304031D01*
X14623658Y-16304031D02*
X14633182Y-16275460D01*
X14633182Y-16275460D02*
X14642706Y-16227841D01*
X14642706Y-16227841D02*
X14642706Y-16189746D01*
X14642706Y-16189746D02*
X14633182Y-16142127D01*
X14633182Y-16142127D02*
X14623658Y-16113555D01*
X14623658Y-16113555D02*
X14614134Y-16094508D01*
X14614134Y-16094508D02*
X14595087Y-16065936D01*
X14595087Y-16065936D02*
X14585563Y-16056412D01*
X14947468Y-16361174D02*
X14937944Y-16351650D01*
X14937944Y-16351650D02*
X14918896Y-16323079D01*
X14918896Y-16323079D02*
X14909372Y-16304031D01*
X14909372Y-16304031D02*
X14899849Y-16275460D01*
X14899849Y-16275460D02*
X14890325Y-16227841D01*
X14890325Y-16227841D02*
X14890325Y-16189746D01*
X14890325Y-16189746D02*
X14899849Y-16142127D01*
X14899849Y-16142127D02*
X14909372Y-16113555D01*
X14909372Y-16113555D02*
X14918896Y-16094508D01*
X14918896Y-16094508D02*
X14937944Y-16065936D01*
X14937944Y-16065936D02*
X14947468Y-16056412D01*
X15023658Y-16151650D02*
X15023658Y-16284984D01*
X15023658Y-16170698D02*
X15033182Y-16161174D01*
X15033182Y-16161174D02*
X15052230Y-16151650D01*
X15052230Y-16151650D02*
X15080801Y-16151650D01*
X15080801Y-16151650D02*
X15099849Y-16161174D01*
X15099849Y-16161174D02*
X15109372Y-16180222D01*
X15109372Y-16180222D02*
X15109372Y-16284984D01*
X15233182Y-16284984D02*
X15214134Y-16275460D01*
X15214134Y-16275460D02*
X15204611Y-16265936D01*
X15204611Y-16265936D02*
X15195087Y-16246888D01*
X15195087Y-16246888D02*
X15195087Y-16189746D01*
X15195087Y-16189746D02*
X15204611Y-16170698D01*
X15204611Y-16170698D02*
X15214134Y-16161174D01*
X15214134Y-16161174D02*
X15233182Y-16151650D01*
X15233182Y-16151650D02*
X15261753Y-16151650D01*
X15261753Y-16151650D02*
X15280801Y-16161174D01*
X15280801Y-16161174D02*
X15290325Y-16170698D01*
X15290325Y-16170698D02*
X15299849Y-16189746D01*
X15299849Y-16189746D02*
X15299849Y-16246888D01*
X15299849Y-16246888D02*
X15290325Y-16265936D01*
X15290325Y-16265936D02*
X15280801Y-16275460D01*
X15280801Y-16275460D02*
X15261753Y-16284984D01*
X15261753Y-16284984D02*
X15233182Y-16284984D01*
X15356992Y-16151650D02*
X15433182Y-16151650D01*
X15385563Y-16084984D02*
X15385563Y-16256412D01*
X15385563Y-16256412D02*
X15395087Y-16275460D01*
X15395087Y-16275460D02*
X15414134Y-16284984D01*
X15414134Y-16284984D02*
X15433182Y-16284984D01*
X15652230Y-16151650D02*
X15652230Y-16351650D01*
X15652230Y-16161174D02*
X15671277Y-16151650D01*
X15671277Y-16151650D02*
X15709373Y-16151650D01*
X15709373Y-16151650D02*
X15728420Y-16161174D01*
X15728420Y-16161174D02*
X15737944Y-16170698D01*
X15737944Y-16170698D02*
X15747468Y-16189746D01*
X15747468Y-16189746D02*
X15747468Y-16246888D01*
X15747468Y-16246888D02*
X15737944Y-16265936D01*
X15737944Y-16265936D02*
X15728420Y-16275460D01*
X15728420Y-16275460D02*
X15709373Y-16284984D01*
X15709373Y-16284984D02*
X15671277Y-16284984D01*
X15671277Y-16284984D02*
X15652230Y-16275460D01*
X15861753Y-16284984D02*
X15842706Y-16275460D01*
X15842706Y-16275460D02*
X15833182Y-16256412D01*
X15833182Y-16256412D02*
X15833182Y-16084984D01*
X16023658Y-16284984D02*
X16023658Y-16180222D01*
X16023658Y-16180222D02*
X16014134Y-16161174D01*
X16014134Y-16161174D02*
X15995087Y-16151650D01*
X15995087Y-16151650D02*
X15956992Y-16151650D01*
X15956992Y-16151650D02*
X15937944Y-16161174D01*
X16023658Y-16275460D02*
X16004611Y-16284984D01*
X16004611Y-16284984D02*
X15956992Y-16284984D01*
X15956992Y-16284984D02*
X15937944Y-16275460D01*
X15937944Y-16275460D02*
X15928420Y-16256412D01*
X15928420Y-16256412D02*
X15928420Y-16237365D01*
X15928420Y-16237365D02*
X15937944Y-16218317D01*
X15937944Y-16218317D02*
X15956992Y-16208793D01*
X15956992Y-16208793D02*
X16004611Y-16208793D01*
X16004611Y-16208793D02*
X16023658Y-16199269D01*
X16090325Y-16151650D02*
X16166515Y-16151650D01*
X16118896Y-16084984D02*
X16118896Y-16256412D01*
X16118896Y-16256412D02*
X16128420Y-16275460D01*
X16128420Y-16275460D02*
X16147468Y-16284984D01*
X16147468Y-16284984D02*
X16166515Y-16284984D01*
X16309373Y-16275460D02*
X16290325Y-16284984D01*
X16290325Y-16284984D02*
X16252230Y-16284984D01*
X16252230Y-16284984D02*
X16233182Y-16275460D01*
X16233182Y-16275460D02*
X16223658Y-16256412D01*
X16223658Y-16256412D02*
X16223658Y-16180222D01*
X16223658Y-16180222D02*
X16233182Y-16161174D01*
X16233182Y-16161174D02*
X16252230Y-16151650D01*
X16252230Y-16151650D02*
X16290325Y-16151650D01*
X16290325Y-16151650D02*
X16309373Y-16161174D01*
X16309373Y-16161174D02*
X16318896Y-16180222D01*
X16318896Y-16180222D02*
X16318896Y-16199269D01*
X16318896Y-16199269D02*
X16223658Y-16218317D01*
X16490325Y-16284984D02*
X16490325Y-16084984D01*
X16490325Y-16275460D02*
X16471277Y-16284984D01*
X16471277Y-16284984D02*
X16433182Y-16284984D01*
X16433182Y-16284984D02*
X16414134Y-16275460D01*
X16414134Y-16275460D02*
X16404611Y-16265936D01*
X16404611Y-16265936D02*
X16395087Y-16246888D01*
X16395087Y-16246888D02*
X16395087Y-16189746D01*
X16395087Y-16189746D02*
X16404611Y-16170698D01*
X16404611Y-16170698D02*
X16414134Y-16161174D01*
X16414134Y-16161174D02*
X16433182Y-16151650D01*
X16433182Y-16151650D02*
X16471277Y-16151650D01*
X16471277Y-16151650D02*
X16490325Y-16161174D01*
X16566515Y-16361174D02*
X16576039Y-16351650D01*
X16576039Y-16351650D02*
X16595087Y-16323079D01*
X16595087Y-16323079D02*
X16604611Y-16304031D01*
X16604611Y-16304031D02*
X16614134Y-16275460D01*
X16614134Y-16275460D02*
X16623658Y-16227841D01*
X16623658Y-16227841D02*
X16623658Y-16189746D01*
X16623658Y-16189746D02*
X16614134Y-16142127D01*
X16614134Y-16142127D02*
X16604611Y-16113555D01*
X16604611Y-16113555D02*
X16595087Y-16094508D01*
X16595087Y-16094508D02*
X16576039Y-16065936D01*
X16576039Y-16065936D02*
X16566515Y-16056412D01*
X9781211Y-16584211D02*
X9781211Y-16442789D01*
X9639789Y-16442789D01*
X9639789Y-16584211D01*
X9781211Y-16584211D01*
X10052229Y-16404984D02*
X10176039Y-16404984D01*
X10176039Y-16404984D02*
X10109372Y-16481174D01*
X10109372Y-16481174D02*
X10137944Y-16481174D01*
X10137944Y-16481174D02*
X10156991Y-16490698D01*
X10156991Y-16490698D02*
X10166515Y-16500222D01*
X10166515Y-16500222D02*
X10176039Y-16519269D01*
X10176039Y-16519269D02*
X10176039Y-16566888D01*
X10176039Y-16566888D02*
X10166515Y-16585936D01*
X10166515Y-16585936D02*
X10156991Y-16595460D01*
X10156991Y-16595460D02*
X10137944Y-16604984D01*
X10137944Y-16604984D02*
X10080801Y-16604984D01*
X10080801Y-16604984D02*
X10061753Y-16595460D01*
X10061753Y-16595460D02*
X10052229Y-16585936D01*
X10261753Y-16585936D02*
X10271277Y-16595460D01*
X10271277Y-16595460D02*
X10261753Y-16604984D01*
X10261753Y-16604984D02*
X10252229Y-16595460D01*
X10252229Y-16595460D02*
X10261753Y-16585936D01*
X10261753Y-16585936D02*
X10261753Y-16604984D01*
X10461753Y-16604984D02*
X10347467Y-16604984D01*
X10404610Y-16604984D02*
X10404610Y-16404984D01*
X10404610Y-16404984D02*
X10385563Y-16433555D01*
X10385563Y-16433555D02*
X10366515Y-16452603D01*
X10366515Y-16452603D02*
X10347467Y-16462127D01*
X10585563Y-16404984D02*
X10604610Y-16404984D01*
X10604610Y-16404984D02*
X10623658Y-16414508D01*
X10623658Y-16414508D02*
X10633182Y-16424031D01*
X10633182Y-16424031D02*
X10642705Y-16443079D01*
X10642705Y-16443079D02*
X10652229Y-16481174D01*
X10652229Y-16481174D02*
X10652229Y-16528793D01*
X10652229Y-16528793D02*
X10642705Y-16566888D01*
X10642705Y-16566888D02*
X10633182Y-16585936D01*
X10633182Y-16585936D02*
X10623658Y-16595460D01*
X10623658Y-16595460D02*
X10604610Y-16604984D01*
X10604610Y-16604984D02*
X10585563Y-16604984D01*
X10585563Y-16604984D02*
X10566515Y-16595460D01*
X10566515Y-16595460D02*
X10556991Y-16585936D01*
X10556991Y-16585936D02*
X10547467Y-16566888D01*
X10547467Y-16566888D02*
X10537944Y-16528793D01*
X10537944Y-16528793D02*
X10537944Y-16481174D01*
X10537944Y-16481174D02*
X10547467Y-16443079D01*
X10547467Y-16443079D02*
X10556991Y-16424031D01*
X10556991Y-16424031D02*
X10566515Y-16414508D01*
X10566515Y-16414508D02*
X10585563Y-16404984D01*
X10776039Y-16404984D02*
X10795086Y-16404984D01*
X10795086Y-16404984D02*
X10814134Y-16414508D01*
X10814134Y-16414508D02*
X10823658Y-16424031D01*
X10823658Y-16424031D02*
X10833182Y-16443079D01*
X10833182Y-16443079D02*
X10842705Y-16481174D01*
X10842705Y-16481174D02*
X10842705Y-16528793D01*
X10842705Y-16528793D02*
X10833182Y-16566888D01*
X10833182Y-16566888D02*
X10823658Y-16585936D01*
X10823658Y-16585936D02*
X10814134Y-16595460D01*
X10814134Y-16595460D02*
X10795086Y-16604984D01*
X10795086Y-16604984D02*
X10776039Y-16604984D01*
X10776039Y-16604984D02*
X10756991Y-16595460D01*
X10756991Y-16595460D02*
X10747467Y-16585936D01*
X10747467Y-16585936D02*
X10737944Y-16566888D01*
X10737944Y-16566888D02*
X10728420Y-16528793D01*
X10728420Y-16528793D02*
X10728420Y-16481174D01*
X10728420Y-16481174D02*
X10737944Y-16443079D01*
X10737944Y-16443079D02*
X10747467Y-16424031D01*
X10747467Y-16424031D02*
X10756991Y-16414508D01*
X10756991Y-16414508D02*
X10776039Y-16404984D01*
X10928420Y-16604984D02*
X10928420Y-16471650D01*
X10928420Y-16490698D02*
X10937944Y-16481174D01*
X10937944Y-16481174D02*
X10956991Y-16471650D01*
X10956991Y-16471650D02*
X10985563Y-16471650D01*
X10985563Y-16471650D02*
X11004610Y-16481174D01*
X11004610Y-16481174D02*
X11014134Y-16500222D01*
X11014134Y-16500222D02*
X11014134Y-16604984D01*
X11014134Y-16500222D02*
X11023658Y-16481174D01*
X11023658Y-16481174D02*
X11042705Y-16471650D01*
X11042705Y-16471650D02*
X11071277Y-16471650D01*
X11071277Y-16471650D02*
X11090325Y-16481174D01*
X11090325Y-16481174D02*
X11099848Y-16500222D01*
X11099848Y-16500222D02*
X11099848Y-16604984D01*
X11195086Y-16604984D02*
X11195086Y-16471650D01*
X11195086Y-16490698D02*
X11204610Y-16481174D01*
X11204610Y-16481174D02*
X11223658Y-16471650D01*
X11223658Y-16471650D02*
X11252229Y-16471650D01*
X11252229Y-16471650D02*
X11271277Y-16481174D01*
X11271277Y-16481174D02*
X11280801Y-16500222D01*
X11280801Y-16500222D02*
X11280801Y-16604984D01*
X11280801Y-16500222D02*
X11290324Y-16481174D01*
X11290324Y-16481174D02*
X11309372Y-16471650D01*
X11309372Y-16471650D02*
X11337943Y-16471650D01*
X11337943Y-16471650D02*
X11356991Y-16481174D01*
X11356991Y-16481174D02*
X11366515Y-16500222D01*
X11366515Y-16500222D02*
X11366515Y-16604984D01*
X11756991Y-16395460D02*
X11585563Y-16652603D01*
X12014134Y-16404984D02*
X12033182Y-16404984D01*
X12033182Y-16404984D02*
X12052229Y-16414508D01*
X12052229Y-16414508D02*
X12061753Y-16424031D01*
X12061753Y-16424031D02*
X12071277Y-16443079D01*
X12071277Y-16443079D02*
X12080801Y-16481174D01*
X12080801Y-16481174D02*
X12080801Y-16528793D01*
X12080801Y-16528793D02*
X12071277Y-16566888D01*
X12071277Y-16566888D02*
X12061753Y-16585936D01*
X12061753Y-16585936D02*
X12052229Y-16595460D01*
X12052229Y-16595460D02*
X12033182Y-16604984D01*
X12033182Y-16604984D02*
X12014134Y-16604984D01*
X12014134Y-16604984D02*
X11995086Y-16595460D01*
X11995086Y-16595460D02*
X11985563Y-16585936D01*
X11985563Y-16585936D02*
X11976039Y-16566888D01*
X11976039Y-16566888D02*
X11966515Y-16528793D01*
X11966515Y-16528793D02*
X11966515Y-16481174D01*
X11966515Y-16481174D02*
X11976039Y-16443079D01*
X11976039Y-16443079D02*
X11985563Y-16424031D01*
X11985563Y-16424031D02*
X11995086Y-16414508D01*
X11995086Y-16414508D02*
X12014134Y-16404984D01*
X12166515Y-16585936D02*
X12176039Y-16595460D01*
X12176039Y-16595460D02*
X12166515Y-16604984D01*
X12166515Y-16604984D02*
X12156991Y-16595460D01*
X12156991Y-16595460D02*
X12166515Y-16585936D01*
X12166515Y-16585936D02*
X12166515Y-16604984D01*
X12366515Y-16604984D02*
X12252229Y-16604984D01*
X12309372Y-16604984D02*
X12309372Y-16404984D01*
X12309372Y-16404984D02*
X12290325Y-16433555D01*
X12290325Y-16433555D02*
X12271277Y-16452603D01*
X12271277Y-16452603D02*
X12252229Y-16462127D01*
X12442706Y-16424031D02*
X12452229Y-16414508D01*
X12452229Y-16414508D02*
X12471277Y-16404984D01*
X12471277Y-16404984D02*
X12518896Y-16404984D01*
X12518896Y-16404984D02*
X12537944Y-16414508D01*
X12537944Y-16414508D02*
X12547467Y-16424031D01*
X12547467Y-16424031D02*
X12556991Y-16443079D01*
X12556991Y-16443079D02*
X12556991Y-16462127D01*
X12556991Y-16462127D02*
X12547467Y-16490698D01*
X12547467Y-16490698D02*
X12433182Y-16604984D01*
X12433182Y-16604984D02*
X12556991Y-16604984D01*
X12633182Y-16424031D02*
X12642706Y-16414508D01*
X12642706Y-16414508D02*
X12661753Y-16404984D01*
X12661753Y-16404984D02*
X12709372Y-16404984D01*
X12709372Y-16404984D02*
X12728420Y-16414508D01*
X12728420Y-16414508D02*
X12737944Y-16424031D01*
X12737944Y-16424031D02*
X12747467Y-16443079D01*
X12747467Y-16443079D02*
X12747467Y-16462127D01*
X12747467Y-16462127D02*
X12737944Y-16490698D01*
X12737944Y-16490698D02*
X12623658Y-16604984D01*
X12623658Y-16604984D02*
X12747467Y-16604984D01*
X12871277Y-16404984D02*
X12890325Y-16404984D01*
X12890325Y-16404984D02*
X12909372Y-16414508D01*
X12909372Y-16414508D02*
X12918896Y-16424031D01*
X12918896Y-16424031D02*
X12928420Y-16443079D01*
X12928420Y-16443079D02*
X12937944Y-16481174D01*
X12937944Y-16481174D02*
X12937944Y-16528793D01*
X12937944Y-16528793D02*
X12928420Y-16566888D01*
X12928420Y-16566888D02*
X12918896Y-16585936D01*
X12918896Y-16585936D02*
X12909372Y-16595460D01*
X12909372Y-16595460D02*
X12890325Y-16604984D01*
X12890325Y-16604984D02*
X12871277Y-16604984D01*
X12871277Y-16604984D02*
X12852229Y-16595460D01*
X12852229Y-16595460D02*
X12842706Y-16585936D01*
X12842706Y-16585936D02*
X12833182Y-16566888D01*
X12833182Y-16566888D02*
X12823658Y-16528793D01*
X12823658Y-16528793D02*
X12823658Y-16481174D01*
X12823658Y-16481174D02*
X12833182Y-16443079D01*
X12833182Y-16443079D02*
X12842706Y-16424031D01*
X12842706Y-16424031D02*
X12852229Y-16414508D01*
X12852229Y-16414508D02*
X12871277Y-16404984D01*
X13014134Y-16404984D02*
X13014134Y-16443079D01*
X13090325Y-16404984D02*
X13090325Y-16443079D01*
X13385563Y-16681174D02*
X13376039Y-16671650D01*
X13376039Y-16671650D02*
X13356991Y-16643079D01*
X13356991Y-16643079D02*
X13347468Y-16624031D01*
X13347468Y-16624031D02*
X13337944Y-16595460D01*
X13337944Y-16595460D02*
X13328420Y-16547841D01*
X13328420Y-16547841D02*
X13328420Y-16509746D01*
X13328420Y-16509746D02*
X13337944Y-16462127D01*
X13337944Y-16462127D02*
X13347468Y-16433555D01*
X13347468Y-16433555D02*
X13356991Y-16414508D01*
X13356991Y-16414508D02*
X13376039Y-16385936D01*
X13376039Y-16385936D02*
X13385563Y-16376412D01*
X13547468Y-16404984D02*
X13509372Y-16404984D01*
X13509372Y-16404984D02*
X13490325Y-16414508D01*
X13490325Y-16414508D02*
X13480801Y-16424031D01*
X13480801Y-16424031D02*
X13461753Y-16452603D01*
X13461753Y-16452603D02*
X13452229Y-16490698D01*
X13452229Y-16490698D02*
X13452229Y-16566888D01*
X13452229Y-16566888D02*
X13461753Y-16585936D01*
X13461753Y-16585936D02*
X13471277Y-16595460D01*
X13471277Y-16595460D02*
X13490325Y-16604984D01*
X13490325Y-16604984D02*
X13528420Y-16604984D01*
X13528420Y-16604984D02*
X13547468Y-16595460D01*
X13547468Y-16595460D02*
X13556991Y-16585936D01*
X13556991Y-16585936D02*
X13566515Y-16566888D01*
X13566515Y-16566888D02*
X13566515Y-16519269D01*
X13566515Y-16519269D02*
X13556991Y-16500222D01*
X13556991Y-16500222D02*
X13547468Y-16490698D01*
X13547468Y-16490698D02*
X13528420Y-16481174D01*
X13528420Y-16481174D02*
X13490325Y-16481174D01*
X13490325Y-16481174D02*
X13471277Y-16490698D01*
X13471277Y-16490698D02*
X13461753Y-16500222D01*
X13461753Y-16500222D02*
X13452229Y-16519269D01*
X13804610Y-16604984D02*
X13804610Y-16404984D01*
X13890325Y-16604984D02*
X13890325Y-16500222D01*
X13890325Y-16500222D02*
X13880801Y-16481174D01*
X13880801Y-16481174D02*
X13861753Y-16471650D01*
X13861753Y-16471650D02*
X13833182Y-16471650D01*
X13833182Y-16471650D02*
X13814134Y-16481174D01*
X13814134Y-16481174D02*
X13804610Y-16490698D01*
X14014134Y-16604984D02*
X13995087Y-16595460D01*
X13995087Y-16595460D02*
X13985563Y-16585936D01*
X13985563Y-16585936D02*
X13976039Y-16566888D01*
X13976039Y-16566888D02*
X13976039Y-16509746D01*
X13976039Y-16509746D02*
X13985563Y-16490698D01*
X13985563Y-16490698D02*
X13995087Y-16481174D01*
X13995087Y-16481174D02*
X14014134Y-16471650D01*
X14014134Y-16471650D02*
X14042706Y-16471650D01*
X14042706Y-16471650D02*
X14061753Y-16481174D01*
X14061753Y-16481174D02*
X14071277Y-16490698D01*
X14071277Y-16490698D02*
X14080801Y-16509746D01*
X14080801Y-16509746D02*
X14080801Y-16566888D01*
X14080801Y-16566888D02*
X14071277Y-16585936D01*
X14071277Y-16585936D02*
X14061753Y-16595460D01*
X14061753Y-16595460D02*
X14042706Y-16604984D01*
X14042706Y-16604984D02*
X14014134Y-16604984D01*
X14195087Y-16604984D02*
X14176039Y-16595460D01*
X14176039Y-16595460D02*
X14166515Y-16576412D01*
X14166515Y-16576412D02*
X14166515Y-16404984D01*
X14347468Y-16595460D02*
X14328420Y-16604984D01*
X14328420Y-16604984D02*
X14290325Y-16604984D01*
X14290325Y-16604984D02*
X14271277Y-16595460D01*
X14271277Y-16595460D02*
X14261753Y-16576412D01*
X14261753Y-16576412D02*
X14261753Y-16500222D01*
X14261753Y-16500222D02*
X14271277Y-16481174D01*
X14271277Y-16481174D02*
X14290325Y-16471650D01*
X14290325Y-16471650D02*
X14328420Y-16471650D01*
X14328420Y-16471650D02*
X14347468Y-16481174D01*
X14347468Y-16481174D02*
X14356991Y-16500222D01*
X14356991Y-16500222D02*
X14356991Y-16519269D01*
X14356991Y-16519269D02*
X14261753Y-16538317D01*
X14433182Y-16595460D02*
X14452230Y-16604984D01*
X14452230Y-16604984D02*
X14490325Y-16604984D01*
X14490325Y-16604984D02*
X14509372Y-16595460D01*
X14509372Y-16595460D02*
X14518896Y-16576412D01*
X14518896Y-16576412D02*
X14518896Y-16566888D01*
X14518896Y-16566888D02*
X14509372Y-16547841D01*
X14509372Y-16547841D02*
X14490325Y-16538317D01*
X14490325Y-16538317D02*
X14461753Y-16538317D01*
X14461753Y-16538317D02*
X14442706Y-16528793D01*
X14442706Y-16528793D02*
X14433182Y-16509746D01*
X14433182Y-16509746D02*
X14433182Y-16500222D01*
X14433182Y-16500222D02*
X14442706Y-16481174D01*
X14442706Y-16481174D02*
X14461753Y-16471650D01*
X14461753Y-16471650D02*
X14490325Y-16471650D01*
X14490325Y-16471650D02*
X14509372Y-16481174D01*
X14585563Y-16681174D02*
X14595087Y-16671650D01*
X14595087Y-16671650D02*
X14614134Y-16643079D01*
X14614134Y-16643079D02*
X14623658Y-16624031D01*
X14623658Y-16624031D02*
X14633182Y-16595460D01*
X14633182Y-16595460D02*
X14642706Y-16547841D01*
X14642706Y-16547841D02*
X14642706Y-16509746D01*
X14642706Y-16509746D02*
X14633182Y-16462127D01*
X14633182Y-16462127D02*
X14623658Y-16433555D01*
X14623658Y-16433555D02*
X14614134Y-16414508D01*
X14614134Y-16414508D02*
X14595087Y-16385936D01*
X14595087Y-16385936D02*
X14585563Y-16376412D01*
X14947468Y-16681174D02*
X14937944Y-16671650D01*
X14937944Y-16671650D02*
X14918896Y-16643079D01*
X14918896Y-16643079D02*
X14909372Y-16624031D01*
X14909372Y-16624031D02*
X14899849Y-16595460D01*
X14899849Y-16595460D02*
X14890325Y-16547841D01*
X14890325Y-16547841D02*
X14890325Y-16509746D01*
X14890325Y-16509746D02*
X14899849Y-16462127D01*
X14899849Y-16462127D02*
X14909372Y-16433555D01*
X14909372Y-16433555D02*
X14918896Y-16414508D01*
X14918896Y-16414508D02*
X14937944Y-16385936D01*
X14937944Y-16385936D02*
X14947468Y-16376412D01*
X15023658Y-16471650D02*
X15023658Y-16604984D01*
X15023658Y-16490698D02*
X15033182Y-16481174D01*
X15033182Y-16481174D02*
X15052230Y-16471650D01*
X15052230Y-16471650D02*
X15080801Y-16471650D01*
X15080801Y-16471650D02*
X15099849Y-16481174D01*
X15099849Y-16481174D02*
X15109372Y-16500222D01*
X15109372Y-16500222D02*
X15109372Y-16604984D01*
X15233182Y-16604984D02*
X15214134Y-16595460D01*
X15214134Y-16595460D02*
X15204611Y-16585936D01*
X15204611Y-16585936D02*
X15195087Y-16566888D01*
X15195087Y-16566888D02*
X15195087Y-16509746D01*
X15195087Y-16509746D02*
X15204611Y-16490698D01*
X15204611Y-16490698D02*
X15214134Y-16481174D01*
X15214134Y-16481174D02*
X15233182Y-16471650D01*
X15233182Y-16471650D02*
X15261753Y-16471650D01*
X15261753Y-16471650D02*
X15280801Y-16481174D01*
X15280801Y-16481174D02*
X15290325Y-16490698D01*
X15290325Y-16490698D02*
X15299849Y-16509746D01*
X15299849Y-16509746D02*
X15299849Y-16566888D01*
X15299849Y-16566888D02*
X15290325Y-16585936D01*
X15290325Y-16585936D02*
X15280801Y-16595460D01*
X15280801Y-16595460D02*
X15261753Y-16604984D01*
X15261753Y-16604984D02*
X15233182Y-16604984D01*
X15356992Y-16471650D02*
X15433182Y-16471650D01*
X15385563Y-16404984D02*
X15385563Y-16576412D01*
X15385563Y-16576412D02*
X15395087Y-16595460D01*
X15395087Y-16595460D02*
X15414134Y-16604984D01*
X15414134Y-16604984D02*
X15433182Y-16604984D01*
X15652230Y-16471650D02*
X15652230Y-16671650D01*
X15652230Y-16481174D02*
X15671277Y-16471650D01*
X15671277Y-16471650D02*
X15709373Y-16471650D01*
X15709373Y-16471650D02*
X15728420Y-16481174D01*
X15728420Y-16481174D02*
X15737944Y-16490698D01*
X15737944Y-16490698D02*
X15747468Y-16509746D01*
X15747468Y-16509746D02*
X15747468Y-16566888D01*
X15747468Y-16566888D02*
X15737944Y-16585936D01*
X15737944Y-16585936D02*
X15728420Y-16595460D01*
X15728420Y-16595460D02*
X15709373Y-16604984D01*
X15709373Y-16604984D02*
X15671277Y-16604984D01*
X15671277Y-16604984D02*
X15652230Y-16595460D01*
X15861753Y-16604984D02*
X15842706Y-16595460D01*
X15842706Y-16595460D02*
X15833182Y-16576412D01*
X15833182Y-16576412D02*
X15833182Y-16404984D01*
X16023658Y-16604984D02*
X16023658Y-16500222D01*
X16023658Y-16500222D02*
X16014134Y-16481174D01*
X16014134Y-16481174D02*
X15995087Y-16471650D01*
X15995087Y-16471650D02*
X15956992Y-16471650D01*
X15956992Y-16471650D02*
X15937944Y-16481174D01*
X16023658Y-16595460D02*
X16004611Y-16604984D01*
X16004611Y-16604984D02*
X15956992Y-16604984D01*
X15956992Y-16604984D02*
X15937944Y-16595460D01*
X15937944Y-16595460D02*
X15928420Y-16576412D01*
X15928420Y-16576412D02*
X15928420Y-16557365D01*
X15928420Y-16557365D02*
X15937944Y-16538317D01*
X15937944Y-16538317D02*
X15956992Y-16528793D01*
X15956992Y-16528793D02*
X16004611Y-16528793D01*
X16004611Y-16528793D02*
X16023658Y-16519269D01*
X16090325Y-16471650D02*
X16166515Y-16471650D01*
X16118896Y-16404984D02*
X16118896Y-16576412D01*
X16118896Y-16576412D02*
X16128420Y-16595460D01*
X16128420Y-16595460D02*
X16147468Y-16604984D01*
X16147468Y-16604984D02*
X16166515Y-16604984D01*
X16309373Y-16595460D02*
X16290325Y-16604984D01*
X16290325Y-16604984D02*
X16252230Y-16604984D01*
X16252230Y-16604984D02*
X16233182Y-16595460D01*
X16233182Y-16595460D02*
X16223658Y-16576412D01*
X16223658Y-16576412D02*
X16223658Y-16500222D01*
X16223658Y-16500222D02*
X16233182Y-16481174D01*
X16233182Y-16481174D02*
X16252230Y-16471650D01*
X16252230Y-16471650D02*
X16290325Y-16471650D01*
X16290325Y-16471650D02*
X16309373Y-16481174D01*
X16309373Y-16481174D02*
X16318896Y-16500222D01*
X16318896Y-16500222D02*
X16318896Y-16519269D01*
X16318896Y-16519269D02*
X16223658Y-16538317D01*
X16490325Y-16604984D02*
X16490325Y-16404984D01*
X16490325Y-16595460D02*
X16471277Y-16604984D01*
X16471277Y-16604984D02*
X16433182Y-16604984D01*
X16433182Y-16604984D02*
X16414134Y-16595460D01*
X16414134Y-16595460D02*
X16404611Y-16585936D01*
X16404611Y-16585936D02*
X16395087Y-16566888D01*
X16395087Y-16566888D02*
X16395087Y-16509746D01*
X16395087Y-16509746D02*
X16404611Y-16490698D01*
X16404611Y-16490698D02*
X16414134Y-16481174D01*
X16414134Y-16481174D02*
X16433182Y-16471650D01*
X16433182Y-16471650D02*
X16471277Y-16471650D01*
X16471277Y-16471650D02*
X16490325Y-16481174D01*
X16566515Y-16681174D02*
X16576039Y-16671650D01*
X16576039Y-16671650D02*
X16595087Y-16643079D01*
X16595087Y-16643079D02*
X16604611Y-16624031D01*
X16604611Y-16624031D02*
X16614134Y-16595460D01*
X16614134Y-16595460D02*
X16623658Y-16547841D01*
X16623658Y-16547841D02*
X16623658Y-16509746D01*
X16623658Y-16509746D02*
X16614134Y-16462127D01*
X16614134Y-16462127D02*
X16604611Y-16433555D01*
X16604611Y-16433555D02*
X16595087Y-16414508D01*
X16595087Y-16414508D02*
X16576039Y-16385936D01*
X16576039Y-16385936D02*
X16566515Y-16376412D01*
X9710500Y-16933500D02*
X9810500Y-16833500D01*
X9710500Y-16733500D01*
X9610500Y-16833500D01*
X9710500Y-16933500D01*
X10166515Y-16724984D02*
X10071277Y-16724984D01*
X10071277Y-16724984D02*
X10061753Y-16820222D01*
X10061753Y-16820222D02*
X10071277Y-16810698D01*
X10071277Y-16810698D02*
X10090324Y-16801174D01*
X10090324Y-16801174D02*
X10137944Y-16801174D01*
X10137944Y-16801174D02*
X10156991Y-16810698D01*
X10156991Y-16810698D02*
X10166515Y-16820222D01*
X10166515Y-16820222D02*
X10176039Y-16839270D01*
X10176039Y-16839270D02*
X10176039Y-16886889D01*
X10176039Y-16886889D02*
X10166515Y-16905936D01*
X10166515Y-16905936D02*
X10156991Y-16915460D01*
X10156991Y-16915460D02*
X10137944Y-16924984D01*
X10137944Y-16924984D02*
X10090324Y-16924984D01*
X10090324Y-16924984D02*
X10071277Y-16915460D01*
X10071277Y-16915460D02*
X10061753Y-16905936D01*
X10261753Y-16905936D02*
X10271277Y-16915460D01*
X10271277Y-16915460D02*
X10261753Y-16924984D01*
X10261753Y-16924984D02*
X10252229Y-16915460D01*
X10252229Y-16915460D02*
X10261753Y-16905936D01*
X10261753Y-16905936D02*
X10261753Y-16924984D01*
X10395086Y-16724984D02*
X10414134Y-16724984D01*
X10414134Y-16724984D02*
X10433182Y-16734508D01*
X10433182Y-16734508D02*
X10442705Y-16744031D01*
X10442705Y-16744031D02*
X10452229Y-16763079D01*
X10452229Y-16763079D02*
X10461753Y-16801174D01*
X10461753Y-16801174D02*
X10461753Y-16848793D01*
X10461753Y-16848793D02*
X10452229Y-16886889D01*
X10452229Y-16886889D02*
X10442705Y-16905936D01*
X10442705Y-16905936D02*
X10433182Y-16915460D01*
X10433182Y-16915460D02*
X10414134Y-16924984D01*
X10414134Y-16924984D02*
X10395086Y-16924984D01*
X10395086Y-16924984D02*
X10376039Y-16915460D01*
X10376039Y-16915460D02*
X10366515Y-16905936D01*
X10366515Y-16905936D02*
X10356991Y-16886889D01*
X10356991Y-16886889D02*
X10347467Y-16848793D01*
X10347467Y-16848793D02*
X10347467Y-16801174D01*
X10347467Y-16801174D02*
X10356991Y-16763079D01*
X10356991Y-16763079D02*
X10366515Y-16744031D01*
X10366515Y-16744031D02*
X10376039Y-16734508D01*
X10376039Y-16734508D02*
X10395086Y-16724984D01*
X10585563Y-16724984D02*
X10604610Y-16724984D01*
X10604610Y-16724984D02*
X10623658Y-16734508D01*
X10623658Y-16734508D02*
X10633182Y-16744031D01*
X10633182Y-16744031D02*
X10642705Y-16763079D01*
X10642705Y-16763079D02*
X10652229Y-16801174D01*
X10652229Y-16801174D02*
X10652229Y-16848793D01*
X10652229Y-16848793D02*
X10642705Y-16886889D01*
X10642705Y-16886889D02*
X10633182Y-16905936D01*
X10633182Y-16905936D02*
X10623658Y-16915460D01*
X10623658Y-16915460D02*
X10604610Y-16924984D01*
X10604610Y-16924984D02*
X10585563Y-16924984D01*
X10585563Y-16924984D02*
X10566515Y-16915460D01*
X10566515Y-16915460D02*
X10556991Y-16905936D01*
X10556991Y-16905936D02*
X10547467Y-16886889D01*
X10547467Y-16886889D02*
X10537944Y-16848793D01*
X10537944Y-16848793D02*
X10537944Y-16801174D01*
X10537944Y-16801174D02*
X10547467Y-16763079D01*
X10547467Y-16763079D02*
X10556991Y-16744031D01*
X10556991Y-16744031D02*
X10566515Y-16734508D01*
X10566515Y-16734508D02*
X10585563Y-16724984D01*
X10776039Y-16724984D02*
X10795086Y-16724984D01*
X10795086Y-16724984D02*
X10814134Y-16734508D01*
X10814134Y-16734508D02*
X10823658Y-16744031D01*
X10823658Y-16744031D02*
X10833182Y-16763079D01*
X10833182Y-16763079D02*
X10842705Y-16801174D01*
X10842705Y-16801174D02*
X10842705Y-16848793D01*
X10842705Y-16848793D02*
X10833182Y-16886889D01*
X10833182Y-16886889D02*
X10823658Y-16905936D01*
X10823658Y-16905936D02*
X10814134Y-16915460D01*
X10814134Y-16915460D02*
X10795086Y-16924984D01*
X10795086Y-16924984D02*
X10776039Y-16924984D01*
X10776039Y-16924984D02*
X10756991Y-16915460D01*
X10756991Y-16915460D02*
X10747467Y-16905936D01*
X10747467Y-16905936D02*
X10737944Y-16886889D01*
X10737944Y-16886889D02*
X10728420Y-16848793D01*
X10728420Y-16848793D02*
X10728420Y-16801174D01*
X10728420Y-16801174D02*
X10737944Y-16763079D01*
X10737944Y-16763079D02*
X10747467Y-16744031D01*
X10747467Y-16744031D02*
X10756991Y-16734508D01*
X10756991Y-16734508D02*
X10776039Y-16724984D01*
X10928420Y-16924984D02*
X10928420Y-16791650D01*
X10928420Y-16810698D02*
X10937944Y-16801174D01*
X10937944Y-16801174D02*
X10956991Y-16791650D01*
X10956991Y-16791650D02*
X10985563Y-16791650D01*
X10985563Y-16791650D02*
X11004610Y-16801174D01*
X11004610Y-16801174D02*
X11014134Y-16820222D01*
X11014134Y-16820222D02*
X11014134Y-16924984D01*
X11014134Y-16820222D02*
X11023658Y-16801174D01*
X11023658Y-16801174D02*
X11042705Y-16791650D01*
X11042705Y-16791650D02*
X11071277Y-16791650D01*
X11071277Y-16791650D02*
X11090325Y-16801174D01*
X11090325Y-16801174D02*
X11099848Y-16820222D01*
X11099848Y-16820222D02*
X11099848Y-16924984D01*
X11195086Y-16924984D02*
X11195086Y-16791650D01*
X11195086Y-16810698D02*
X11204610Y-16801174D01*
X11204610Y-16801174D02*
X11223658Y-16791650D01*
X11223658Y-16791650D02*
X11252229Y-16791650D01*
X11252229Y-16791650D02*
X11271277Y-16801174D01*
X11271277Y-16801174D02*
X11280801Y-16820222D01*
X11280801Y-16820222D02*
X11280801Y-16924984D01*
X11280801Y-16820222D02*
X11290324Y-16801174D01*
X11290324Y-16801174D02*
X11309372Y-16791650D01*
X11309372Y-16791650D02*
X11337943Y-16791650D01*
X11337943Y-16791650D02*
X11356991Y-16801174D01*
X11356991Y-16801174D02*
X11366515Y-16820222D01*
X11366515Y-16820222D02*
X11366515Y-16924984D01*
X11756991Y-16715460D02*
X11585563Y-16972603D01*
X12014134Y-16724984D02*
X12033182Y-16724984D01*
X12033182Y-16724984D02*
X12052229Y-16734508D01*
X12052229Y-16734508D02*
X12061753Y-16744031D01*
X12061753Y-16744031D02*
X12071277Y-16763079D01*
X12071277Y-16763079D02*
X12080801Y-16801174D01*
X12080801Y-16801174D02*
X12080801Y-16848793D01*
X12080801Y-16848793D02*
X12071277Y-16886889D01*
X12071277Y-16886889D02*
X12061753Y-16905936D01*
X12061753Y-16905936D02*
X12052229Y-16915460D01*
X12052229Y-16915460D02*
X12033182Y-16924984D01*
X12033182Y-16924984D02*
X12014134Y-16924984D01*
X12014134Y-16924984D02*
X11995086Y-16915460D01*
X11995086Y-16915460D02*
X11985563Y-16905936D01*
X11985563Y-16905936D02*
X11976039Y-16886889D01*
X11976039Y-16886889D02*
X11966515Y-16848793D01*
X11966515Y-16848793D02*
X11966515Y-16801174D01*
X11966515Y-16801174D02*
X11976039Y-16763079D01*
X11976039Y-16763079D02*
X11985563Y-16744031D01*
X11985563Y-16744031D02*
X11995086Y-16734508D01*
X11995086Y-16734508D02*
X12014134Y-16724984D01*
X12166515Y-16905936D02*
X12176039Y-16915460D01*
X12176039Y-16915460D02*
X12166515Y-16924984D01*
X12166515Y-16924984D02*
X12156991Y-16915460D01*
X12156991Y-16915460D02*
X12166515Y-16905936D01*
X12166515Y-16905936D02*
X12166515Y-16924984D01*
X12366515Y-16924984D02*
X12252229Y-16924984D01*
X12309372Y-16924984D02*
X12309372Y-16724984D01*
X12309372Y-16724984D02*
X12290325Y-16753555D01*
X12290325Y-16753555D02*
X12271277Y-16772603D01*
X12271277Y-16772603D02*
X12252229Y-16782127D01*
X12461753Y-16924984D02*
X12499848Y-16924984D01*
X12499848Y-16924984D02*
X12518896Y-16915460D01*
X12518896Y-16915460D02*
X12528420Y-16905936D01*
X12528420Y-16905936D02*
X12547467Y-16877365D01*
X12547467Y-16877365D02*
X12556991Y-16839270D01*
X12556991Y-16839270D02*
X12556991Y-16763079D01*
X12556991Y-16763079D02*
X12547467Y-16744031D01*
X12547467Y-16744031D02*
X12537944Y-16734508D01*
X12537944Y-16734508D02*
X12518896Y-16724984D01*
X12518896Y-16724984D02*
X12480801Y-16724984D01*
X12480801Y-16724984D02*
X12461753Y-16734508D01*
X12461753Y-16734508D02*
X12452229Y-16744031D01*
X12452229Y-16744031D02*
X12442706Y-16763079D01*
X12442706Y-16763079D02*
X12442706Y-16810698D01*
X12442706Y-16810698D02*
X12452229Y-16829746D01*
X12452229Y-16829746D02*
X12461753Y-16839270D01*
X12461753Y-16839270D02*
X12480801Y-16848793D01*
X12480801Y-16848793D02*
X12518896Y-16848793D01*
X12518896Y-16848793D02*
X12537944Y-16839270D01*
X12537944Y-16839270D02*
X12547467Y-16829746D01*
X12547467Y-16829746D02*
X12556991Y-16810698D01*
X12728420Y-16724984D02*
X12690325Y-16724984D01*
X12690325Y-16724984D02*
X12671277Y-16734508D01*
X12671277Y-16734508D02*
X12661753Y-16744031D01*
X12661753Y-16744031D02*
X12642706Y-16772603D01*
X12642706Y-16772603D02*
X12633182Y-16810698D01*
X12633182Y-16810698D02*
X12633182Y-16886889D01*
X12633182Y-16886889D02*
X12642706Y-16905936D01*
X12642706Y-16905936D02*
X12652229Y-16915460D01*
X12652229Y-16915460D02*
X12671277Y-16924984D01*
X12671277Y-16924984D02*
X12709372Y-16924984D01*
X12709372Y-16924984D02*
X12728420Y-16915460D01*
X12728420Y-16915460D02*
X12737944Y-16905936D01*
X12737944Y-16905936D02*
X12747467Y-16886889D01*
X12747467Y-16886889D02*
X12747467Y-16839270D01*
X12747467Y-16839270D02*
X12737944Y-16820222D01*
X12737944Y-16820222D02*
X12728420Y-16810698D01*
X12728420Y-16810698D02*
X12709372Y-16801174D01*
X12709372Y-16801174D02*
X12671277Y-16801174D01*
X12671277Y-16801174D02*
X12652229Y-16810698D01*
X12652229Y-16810698D02*
X12642706Y-16820222D01*
X12642706Y-16820222D02*
X12633182Y-16839270D01*
X12842706Y-16924984D02*
X12880801Y-16924984D01*
X12880801Y-16924984D02*
X12899848Y-16915460D01*
X12899848Y-16915460D02*
X12909372Y-16905936D01*
X12909372Y-16905936D02*
X12928420Y-16877365D01*
X12928420Y-16877365D02*
X12937944Y-16839270D01*
X12937944Y-16839270D02*
X12937944Y-16763079D01*
X12937944Y-16763079D02*
X12928420Y-16744031D01*
X12928420Y-16744031D02*
X12918896Y-16734508D01*
X12918896Y-16734508D02*
X12899848Y-16724984D01*
X12899848Y-16724984D02*
X12861753Y-16724984D01*
X12861753Y-16724984D02*
X12842706Y-16734508D01*
X12842706Y-16734508D02*
X12833182Y-16744031D01*
X12833182Y-16744031D02*
X12823658Y-16763079D01*
X12823658Y-16763079D02*
X12823658Y-16810698D01*
X12823658Y-16810698D02*
X12833182Y-16829746D01*
X12833182Y-16829746D02*
X12842706Y-16839270D01*
X12842706Y-16839270D02*
X12861753Y-16848793D01*
X12861753Y-16848793D02*
X12899848Y-16848793D01*
X12899848Y-16848793D02*
X12918896Y-16839270D01*
X12918896Y-16839270D02*
X12928420Y-16829746D01*
X12928420Y-16829746D02*
X12937944Y-16810698D01*
X13014134Y-16724984D02*
X13014134Y-16763079D01*
X13090325Y-16724984D02*
X13090325Y-16763079D01*
X13385563Y-17001174D02*
X13376039Y-16991650D01*
X13376039Y-16991650D02*
X13356991Y-16963079D01*
X13356991Y-16963079D02*
X13347468Y-16944031D01*
X13347468Y-16944031D02*
X13337944Y-16915460D01*
X13337944Y-16915460D02*
X13328420Y-16867841D01*
X13328420Y-16867841D02*
X13328420Y-16829746D01*
X13328420Y-16829746D02*
X13337944Y-16782127D01*
X13337944Y-16782127D02*
X13347468Y-16753555D01*
X13347468Y-16753555D02*
X13356991Y-16734508D01*
X13356991Y-16734508D02*
X13376039Y-16705936D01*
X13376039Y-16705936D02*
X13385563Y-16696412D01*
X13452229Y-16744031D02*
X13461753Y-16734508D01*
X13461753Y-16734508D02*
X13480801Y-16724984D01*
X13480801Y-16724984D02*
X13528420Y-16724984D01*
X13528420Y-16724984D02*
X13547468Y-16734508D01*
X13547468Y-16734508D02*
X13556991Y-16744031D01*
X13556991Y-16744031D02*
X13566515Y-16763079D01*
X13566515Y-16763079D02*
X13566515Y-16782127D01*
X13566515Y-16782127D02*
X13556991Y-16810698D01*
X13556991Y-16810698D02*
X13442706Y-16924984D01*
X13442706Y-16924984D02*
X13566515Y-16924984D01*
X13804610Y-16924984D02*
X13804610Y-16724984D01*
X13890325Y-16924984D02*
X13890325Y-16820222D01*
X13890325Y-16820222D02*
X13880801Y-16801174D01*
X13880801Y-16801174D02*
X13861753Y-16791650D01*
X13861753Y-16791650D02*
X13833182Y-16791650D01*
X13833182Y-16791650D02*
X13814134Y-16801174D01*
X13814134Y-16801174D02*
X13804610Y-16810698D01*
X14014134Y-16924984D02*
X13995087Y-16915460D01*
X13995087Y-16915460D02*
X13985563Y-16905936D01*
X13985563Y-16905936D02*
X13976039Y-16886889D01*
X13976039Y-16886889D02*
X13976039Y-16829746D01*
X13976039Y-16829746D02*
X13985563Y-16810698D01*
X13985563Y-16810698D02*
X13995087Y-16801174D01*
X13995087Y-16801174D02*
X14014134Y-16791650D01*
X14014134Y-16791650D02*
X14042706Y-16791650D01*
X14042706Y-16791650D02*
X14061753Y-16801174D01*
X14061753Y-16801174D02*
X14071277Y-16810698D01*
X14071277Y-16810698D02*
X14080801Y-16829746D01*
X14080801Y-16829746D02*
X14080801Y-16886889D01*
X14080801Y-16886889D02*
X14071277Y-16905936D01*
X14071277Y-16905936D02*
X14061753Y-16915460D01*
X14061753Y-16915460D02*
X14042706Y-16924984D01*
X14042706Y-16924984D02*
X14014134Y-16924984D01*
X14195087Y-16924984D02*
X14176039Y-16915460D01*
X14176039Y-16915460D02*
X14166515Y-16896412D01*
X14166515Y-16896412D02*
X14166515Y-16724984D01*
X14347468Y-16915460D02*
X14328420Y-16924984D01*
X14328420Y-16924984D02*
X14290325Y-16924984D01*
X14290325Y-16924984D02*
X14271277Y-16915460D01*
X14271277Y-16915460D02*
X14261753Y-16896412D01*
X14261753Y-16896412D02*
X14261753Y-16820222D01*
X14261753Y-16820222D02*
X14271277Y-16801174D01*
X14271277Y-16801174D02*
X14290325Y-16791650D01*
X14290325Y-16791650D02*
X14328420Y-16791650D01*
X14328420Y-16791650D02*
X14347468Y-16801174D01*
X14347468Y-16801174D02*
X14356991Y-16820222D01*
X14356991Y-16820222D02*
X14356991Y-16839270D01*
X14356991Y-16839270D02*
X14261753Y-16858317D01*
X14433182Y-16915460D02*
X14452230Y-16924984D01*
X14452230Y-16924984D02*
X14490325Y-16924984D01*
X14490325Y-16924984D02*
X14509372Y-16915460D01*
X14509372Y-16915460D02*
X14518896Y-16896412D01*
X14518896Y-16896412D02*
X14518896Y-16886889D01*
X14518896Y-16886889D02*
X14509372Y-16867841D01*
X14509372Y-16867841D02*
X14490325Y-16858317D01*
X14490325Y-16858317D02*
X14461753Y-16858317D01*
X14461753Y-16858317D02*
X14442706Y-16848793D01*
X14442706Y-16848793D02*
X14433182Y-16829746D01*
X14433182Y-16829746D02*
X14433182Y-16820222D01*
X14433182Y-16820222D02*
X14442706Y-16801174D01*
X14442706Y-16801174D02*
X14461753Y-16791650D01*
X14461753Y-16791650D02*
X14490325Y-16791650D01*
X14490325Y-16791650D02*
X14509372Y-16801174D01*
X14585563Y-17001174D02*
X14595087Y-16991650D01*
X14595087Y-16991650D02*
X14614134Y-16963079D01*
X14614134Y-16963079D02*
X14623658Y-16944031D01*
X14623658Y-16944031D02*
X14633182Y-16915460D01*
X14633182Y-16915460D02*
X14642706Y-16867841D01*
X14642706Y-16867841D02*
X14642706Y-16829746D01*
X14642706Y-16829746D02*
X14633182Y-16782127D01*
X14633182Y-16782127D02*
X14623658Y-16753555D01*
X14623658Y-16753555D02*
X14614134Y-16734508D01*
X14614134Y-16734508D02*
X14595087Y-16705936D01*
X14595087Y-16705936D02*
X14585563Y-16696412D01*
X14947468Y-17001174D02*
X14937944Y-16991650D01*
X14937944Y-16991650D02*
X14918896Y-16963079D01*
X14918896Y-16963079D02*
X14909372Y-16944031D01*
X14909372Y-16944031D02*
X14899849Y-16915460D01*
X14899849Y-16915460D02*
X14890325Y-16867841D01*
X14890325Y-16867841D02*
X14890325Y-16829746D01*
X14890325Y-16829746D02*
X14899849Y-16782127D01*
X14899849Y-16782127D02*
X14909372Y-16753555D01*
X14909372Y-16753555D02*
X14918896Y-16734508D01*
X14918896Y-16734508D02*
X14937944Y-16705936D01*
X14937944Y-16705936D02*
X14947468Y-16696412D01*
X15023658Y-16791650D02*
X15023658Y-16924984D01*
X15023658Y-16810698D02*
X15033182Y-16801174D01*
X15033182Y-16801174D02*
X15052230Y-16791650D01*
X15052230Y-16791650D02*
X15080801Y-16791650D01*
X15080801Y-16791650D02*
X15099849Y-16801174D01*
X15099849Y-16801174D02*
X15109372Y-16820222D01*
X15109372Y-16820222D02*
X15109372Y-16924984D01*
X15233182Y-16924984D02*
X15214134Y-16915460D01*
X15214134Y-16915460D02*
X15204611Y-16905936D01*
X15204611Y-16905936D02*
X15195087Y-16886889D01*
X15195087Y-16886889D02*
X15195087Y-16829746D01*
X15195087Y-16829746D02*
X15204611Y-16810698D01*
X15204611Y-16810698D02*
X15214134Y-16801174D01*
X15214134Y-16801174D02*
X15233182Y-16791650D01*
X15233182Y-16791650D02*
X15261753Y-16791650D01*
X15261753Y-16791650D02*
X15280801Y-16801174D01*
X15280801Y-16801174D02*
X15290325Y-16810698D01*
X15290325Y-16810698D02*
X15299849Y-16829746D01*
X15299849Y-16829746D02*
X15299849Y-16886889D01*
X15299849Y-16886889D02*
X15290325Y-16905936D01*
X15290325Y-16905936D02*
X15280801Y-16915460D01*
X15280801Y-16915460D02*
X15261753Y-16924984D01*
X15261753Y-16924984D02*
X15233182Y-16924984D01*
X15356992Y-16791650D02*
X15433182Y-16791650D01*
X15385563Y-16724984D02*
X15385563Y-16896412D01*
X15385563Y-16896412D02*
X15395087Y-16915460D01*
X15395087Y-16915460D02*
X15414134Y-16924984D01*
X15414134Y-16924984D02*
X15433182Y-16924984D01*
X15652230Y-16791650D02*
X15652230Y-16991650D01*
X15652230Y-16801174D02*
X15671277Y-16791650D01*
X15671277Y-16791650D02*
X15709373Y-16791650D01*
X15709373Y-16791650D02*
X15728420Y-16801174D01*
X15728420Y-16801174D02*
X15737944Y-16810698D01*
X15737944Y-16810698D02*
X15747468Y-16829746D01*
X15747468Y-16829746D02*
X15747468Y-16886889D01*
X15747468Y-16886889D02*
X15737944Y-16905936D01*
X15737944Y-16905936D02*
X15728420Y-16915460D01*
X15728420Y-16915460D02*
X15709373Y-16924984D01*
X15709373Y-16924984D02*
X15671277Y-16924984D01*
X15671277Y-16924984D02*
X15652230Y-16915460D01*
X15861753Y-16924984D02*
X15842706Y-16915460D01*
X15842706Y-16915460D02*
X15833182Y-16896412D01*
X15833182Y-16896412D02*
X15833182Y-16724984D01*
X16023658Y-16924984D02*
X16023658Y-16820222D01*
X16023658Y-16820222D02*
X16014134Y-16801174D01*
X16014134Y-16801174D02*
X15995087Y-16791650D01*
X15995087Y-16791650D02*
X15956992Y-16791650D01*
X15956992Y-16791650D02*
X15937944Y-16801174D01*
X16023658Y-16915460D02*
X16004611Y-16924984D01*
X16004611Y-16924984D02*
X15956992Y-16924984D01*
X15956992Y-16924984D02*
X15937944Y-16915460D01*
X15937944Y-16915460D02*
X15928420Y-16896412D01*
X15928420Y-16896412D02*
X15928420Y-16877365D01*
X15928420Y-16877365D02*
X15937944Y-16858317D01*
X15937944Y-16858317D02*
X15956992Y-16848793D01*
X15956992Y-16848793D02*
X16004611Y-16848793D01*
X16004611Y-16848793D02*
X16023658Y-16839270D01*
X16090325Y-16791650D02*
X16166515Y-16791650D01*
X16118896Y-16724984D02*
X16118896Y-16896412D01*
X16118896Y-16896412D02*
X16128420Y-16915460D01*
X16128420Y-16915460D02*
X16147468Y-16924984D01*
X16147468Y-16924984D02*
X16166515Y-16924984D01*
X16309373Y-16915460D02*
X16290325Y-16924984D01*
X16290325Y-16924984D02*
X16252230Y-16924984D01*
X16252230Y-16924984D02*
X16233182Y-16915460D01*
X16233182Y-16915460D02*
X16223658Y-16896412D01*
X16223658Y-16896412D02*
X16223658Y-16820222D01*
X16223658Y-16820222D02*
X16233182Y-16801174D01*
X16233182Y-16801174D02*
X16252230Y-16791650D01*
X16252230Y-16791650D02*
X16290325Y-16791650D01*
X16290325Y-16791650D02*
X16309373Y-16801174D01*
X16309373Y-16801174D02*
X16318896Y-16820222D01*
X16318896Y-16820222D02*
X16318896Y-16839270D01*
X16318896Y-16839270D02*
X16223658Y-16858317D01*
X16490325Y-16924984D02*
X16490325Y-16724984D01*
X16490325Y-16915460D02*
X16471277Y-16924984D01*
X16471277Y-16924984D02*
X16433182Y-16924984D01*
X16433182Y-16924984D02*
X16414134Y-16915460D01*
X16414134Y-16915460D02*
X16404611Y-16905936D01*
X16404611Y-16905936D02*
X16395087Y-16886889D01*
X16395087Y-16886889D02*
X16395087Y-16829746D01*
X16395087Y-16829746D02*
X16404611Y-16810698D01*
X16404611Y-16810698D02*
X16414134Y-16801174D01*
X16414134Y-16801174D02*
X16433182Y-16791650D01*
X16433182Y-16791650D02*
X16471277Y-16791650D01*
X16471277Y-16791650D02*
X16490325Y-16801174D01*
X16566515Y-17001174D02*
X16576039Y-16991650D01*
X16576039Y-16991650D02*
X16595087Y-16963079D01*
X16595087Y-16963079D02*
X16604611Y-16944031D01*
X16604611Y-16944031D02*
X16614134Y-16915460D01*
X16614134Y-16915460D02*
X16623658Y-16867841D01*
X16623658Y-16867841D02*
X16623658Y-16829746D01*
X16623658Y-16829746D02*
X16614134Y-16782127D01*
X16614134Y-16782127D02*
X16604611Y-16753555D01*
X16604611Y-16753555D02*
X16595087Y-16734508D01*
X16595087Y-16734508D02*
X16576039Y-16705936D01*
X16576039Y-16705936D02*
X16566515Y-16696412D01*
M02*
