%TF.GenerationSoftware,KiCad,Pcbnew,8.0.1*%
%TF.CreationDate,2024-09-28T11:52:02+02:00*%
%TF.ProjectId,stmbl_5.0,73746d62-6c5f-4352-9e30-2e6b69636164,1.0*%
%TF.SameCoordinates,Original*%
%TF.FileFunction,Paste,Top*%
%TF.FilePolarity,Positive*%
%FSLAX46Y46*%
G04 Gerber Fmt 4.6, Leading zero omitted, Abs format (unit mm)*
G04 Created by KiCad (PCBNEW 8.0.1) date 2024-09-28 11:52:02*
%MOMM*%
%LPD*%
G01*
G04 APERTURE LIST*
G04 Aperture macros list*
%AMRoundRect*
0 Rectangle with rounded corners*
0 $1 Rounding radius*
0 $2 $3 $4 $5 $6 $7 $8 $9 X,Y pos of 4 corners*
0 Add a 4 corners polygon primitive as box body*
4,1,4,$2,$3,$4,$5,$6,$7,$8,$9,$2,$3,0*
0 Add four circle primitives for the rounded corners*
1,1,$1+$1,$2,$3*
1,1,$1+$1,$4,$5*
1,1,$1+$1,$6,$7*
1,1,$1+$1,$8,$9*
0 Add four rect primitives between the rounded corners*
20,1,$1+$1,$2,$3,$4,$5,0*
20,1,$1+$1,$4,$5,$6,$7,0*
20,1,$1+$1,$6,$7,$8,$9,0*
20,1,$1+$1,$8,$9,$2,$3,0*%
G04 Aperture macros list end*
%ADD10RoundRect,0.200000X0.200000X0.600000X-0.200000X0.600000X-0.200000X-0.600000X0.200000X-0.600000X0*%
%ADD11RoundRect,0.400000X1.000000X0.400000X-1.000000X0.400000X-1.000000X-0.400000X1.000000X-0.400000X0*%
%ADD12RoundRect,0.200000X0.400000X0.200000X-0.400000X0.200000X-0.400000X-0.200000X0.400000X-0.200000X0*%
%ADD13RoundRect,0.200000X-0.200000X0.400000X-0.200000X-0.400000X0.200000X-0.400000X0.200000X0.400000X0*%
%ADD14RoundRect,0.350000X-0.650000X-0.350000X0.650000X-0.350000X0.650000X0.350000X-0.650000X0.350000X0*%
%ADD15RoundRect,0.100000X0.100000X0.400000X-0.100000X0.400000X-0.100000X-0.400000X0.100000X-0.400000X0*%
%ADD16RoundRect,0.100000X-0.100000X-0.400000X0.100000X-0.400000X0.100000X0.400000X-0.100000X0.400000X0*%
%ADD17RoundRect,0.100000X-0.400000X0.100000X-0.400000X-0.100000X0.400000X-0.100000X0.400000X0.100000X0*%
%ADD18RoundRect,0.200000X0.800000X0.200000X-0.800000X0.200000X-0.800000X-0.200000X0.800000X-0.200000X0*%
%ADD19RoundRect,0.200000X0.200000X-0.800000X0.200000X0.800000X-0.200000X0.800000X-0.200000X-0.800000X0*%
%ADD20RoundRect,0.350000X0.350000X-0.650000X0.350000X0.650000X-0.350000X0.650000X-0.350000X-0.650000X0*%
%ADD21RoundRect,0.118000X0.202000X-0.118000X0.202000X0.118000X-0.202000X0.118000X-0.202000X-0.118000X0*%
%ADD22RoundRect,0.118000X0.118000X0.202000X-0.118000X0.202000X-0.118000X-0.202000X0.118000X-0.202000X0*%
%ADD23RoundRect,0.118000X-0.202000X0.118000X-0.202000X-0.118000X0.202000X-0.118000X0.202000X0.118000X0*%
%ADD24RoundRect,0.118000X-0.118000X-0.202000X0.118000X-0.202000X0.118000X0.202000X-0.118000X0.202000X0*%
%ADD25RoundRect,0.200000X-0.200000X-0.440000X0.200000X-0.440000X0.200000X0.440000X-0.200000X0.440000X0*%
%ADD26RoundRect,0.200000X0.440000X-0.200000X0.440000X0.200000X-0.440000X0.200000X-0.440000X-0.200000X0*%
%ADD27RoundRect,0.560000X-0.640000X-0.560000X0.640000X-0.560000X0.640000X0.560000X-0.640000X0.560000X0*%
%ADD28RoundRect,0.120000X-0.680000X0.120000X-0.680000X-0.120000X0.680000X-0.120000X0.680000X0.120000X0*%
%ADD29RoundRect,0.150000X-0.150000X0.250000X-0.150000X-0.250000X0.150000X-0.250000X0.150000X0.250000X0*%
%ADD30RoundRect,0.150000X0.250000X0.150000X-0.250000X0.150000X-0.250000X-0.150000X0.250000X-0.150000X0*%
%ADD31RoundRect,0.350000X-0.350000X0.650000X-0.350000X-0.650000X0.350000X-0.650000X0.350000X0.650000X0*%
%ADD32RoundRect,0.200000X-0.200000X-0.400000X0.200000X-0.400000X0.200000X0.400000X-0.200000X0.400000X0*%
%ADD33RoundRect,0.200000X0.400000X-0.200000X0.400000X0.200000X-0.400000X0.200000X-0.400000X-0.200000X0*%
%ADD34RoundRect,0.200000X-0.400000X0.200000X-0.400000X-0.200000X0.400000X-0.200000X0.400000X0.200000X0*%
%ADD35RoundRect,0.150000X0.150000X-0.250000X0.150000X0.250000X-0.150000X0.250000X-0.150000X-0.250000X0*%
%ADD36RoundRect,0.200000X0.300000X-0.200000X0.300000X0.200000X-0.300000X0.200000X-0.300000X-0.200000X0*%
%ADD37RoundRect,0.200000X0.200000X0.300000X-0.200000X0.300000X-0.200000X-0.300000X0.200000X-0.300000X0*%
%ADD38RoundRect,0.200000X-0.200000X-0.300000X0.200000X-0.300000X0.200000X0.300000X-0.200000X0.300000X0*%
%ADD39RoundRect,0.200000X-0.300000X0.200000X-0.300000X-0.200000X0.300000X-0.200000X0.300000X0.200000X0*%
%ADD40RoundRect,0.300000X0.300000X0.980000X-0.300000X0.980000X-0.300000X-0.980000X0.300000X-0.980000X0*%
%ADD41RoundRect,0.095000X-0.095000X0.305000X-0.095000X-0.305000X0.095000X-0.305000X0.095000X0.305000X0*%
%ADD42RoundRect,0.095000X0.095000X-0.305000X0.095000X0.305000X-0.095000X0.305000X-0.095000X-0.305000X0*%
%ADD43RoundRect,0.095000X0.305000X0.095000X-0.305000X0.095000X-0.305000X-0.095000X0.305000X-0.095000X0*%
%ADD44RoundRect,0.120000X0.120000X-0.470000X0.120000X0.470000X-0.120000X0.470000X-0.120000X-0.470000X0*%
%ADD45RoundRect,0.120000X-0.120000X0.470000X-0.120000X-0.470000X0.120000X-0.470000X0.120000X0.470000X0*%
%ADD46R,0.480000X0.920000*%
%ADD47R,0.240000X0.920000*%
%ADD48O,0.800000X1.680000*%
%ADD49O,0.800000X1.440000*%
%ADD50RoundRect,0.300000X0.500000X-0.300000X0.500000X0.300000X-0.500000X0.300000X-0.500000X-0.300000X0*%
%ADD51RoundRect,0.350000X-0.212132X-0.707107X0.707107X0.212132X0.212132X0.707107X-0.707107X-0.212132X0*%
%ADD52RoundRect,0.050000X-0.470000X-0.050000X0.470000X-0.050000X0.470000X0.050000X-0.470000X0.050000X0*%
%ADD53RoundRect,0.050000X0.050000X-0.470000X0.050000X0.470000X-0.050000X0.470000X-0.050000X-0.470000X0*%
%ADD54RoundRect,0.050000X-0.550000X-0.050000X0.550000X-0.050000X0.550000X0.050000X-0.550000X0.050000X0*%
%ADD55RoundRect,0.050000X0.050000X-0.550000X0.050000X0.550000X-0.050000X0.550000X-0.050000X-0.550000X0*%
%ADD56RoundRect,0.120000X0.470000X0.120000X-0.470000X0.120000X-0.470000X-0.120000X0.470000X-0.120000X0*%
%ADD57R,0.920000X0.480000*%
%ADD58R,0.920000X0.240000*%
%ADD59O,1.680000X0.800000*%
%ADD60O,1.440000X0.800000*%
%ADD61RoundRect,0.200000X-0.800000X-0.200000X0.800000X-0.200000X0.800000X0.200000X-0.800000X0.200000X0*%
G04 APERTURE END LIST*
D10*
X120250000Y-93500000D03*
X118000000Y-93500000D03*
D11*
X118000000Y-100000000D03*
D10*
X115750000Y-93500000D03*
D12*
X166741031Y-122428474D03*
X162741031Y-124928474D03*
X162741031Y-122428474D03*
X166741031Y-124928474D03*
D13*
X126500000Y-79000000D03*
X129000000Y-83000000D03*
X126500000Y-83000000D03*
X129000000Y-79000000D03*
D14*
X190491031Y-145928474D03*
X194491031Y-145928474D03*
D15*
X147645000Y-100855000D03*
X146375000Y-100855000D03*
X145105000Y-100855000D03*
X143835000Y-100855000D03*
X143835000Y-106355000D03*
X145105000Y-106355000D03*
X146375000Y-106355000D03*
X147645000Y-106355000D03*
D16*
X161845000Y-77750000D03*
X163115000Y-77750000D03*
X164385000Y-77750000D03*
X165655000Y-77750000D03*
X165655000Y-72250000D03*
X164385000Y-72250000D03*
X163115000Y-72250000D03*
X161845000Y-72250000D03*
X161845000Y-94250000D03*
X163115000Y-94250000D03*
X164385000Y-94250000D03*
X165655000Y-94250000D03*
X165655000Y-88750000D03*
X164385000Y-88750000D03*
X163115000Y-88750000D03*
X161845000Y-88750000D03*
D17*
X175250000Y-63095000D03*
X175250000Y-64365000D03*
X175250000Y-65635000D03*
X175250000Y-66905000D03*
X180750000Y-66905000D03*
X180750000Y-65635000D03*
X180750000Y-64365000D03*
X180750000Y-63095000D03*
X175250000Y-57595000D03*
X175250000Y-58865000D03*
X175250000Y-60135000D03*
X175250000Y-61405000D03*
X180750000Y-61405000D03*
X180750000Y-60135000D03*
X180750000Y-58865000D03*
X180750000Y-57595000D03*
X163750000Y-58595000D03*
X163750000Y-59865000D03*
X163750000Y-61135000D03*
X163750000Y-62405000D03*
X169250000Y-62405000D03*
X169250000Y-61135000D03*
X169250000Y-59865000D03*
X169250000Y-58595000D03*
X175250000Y-52095000D03*
X175250000Y-53365000D03*
X175250000Y-54635000D03*
X175250000Y-55905000D03*
X180750000Y-55905000D03*
X180750000Y-54635000D03*
X180750000Y-53365000D03*
X180750000Y-52095000D03*
X175250000Y-79595000D03*
X175250000Y-80865000D03*
X175250000Y-82135000D03*
X175250000Y-83405000D03*
X180750000Y-83405000D03*
X180750000Y-82135000D03*
X180750000Y-80865000D03*
X180750000Y-79595000D03*
X175250000Y-96095000D03*
X175250000Y-97365000D03*
X175250000Y-98635000D03*
X175250000Y-99905000D03*
X180750000Y-99905000D03*
X180750000Y-98635000D03*
X180750000Y-97365000D03*
X180750000Y-96095000D03*
X175250000Y-90595000D03*
X175250000Y-91865000D03*
X175250000Y-93135000D03*
X175250000Y-94405000D03*
X180750000Y-94405000D03*
X180750000Y-93135000D03*
X180750000Y-91865000D03*
X180750000Y-90595000D03*
X175250000Y-74095000D03*
X175250000Y-75365000D03*
X175250000Y-76635000D03*
X175250000Y-77905000D03*
X180750000Y-77905000D03*
X180750000Y-76635000D03*
X180750000Y-75365000D03*
X180750000Y-74095000D03*
X175250000Y-68595000D03*
X175250000Y-69865000D03*
X175250000Y-71135000D03*
X175250000Y-72405000D03*
X180750000Y-72405000D03*
X180750000Y-71135000D03*
X180750000Y-69865000D03*
X180750000Y-68595000D03*
X175250000Y-85095000D03*
X175250000Y-86365000D03*
X175250000Y-87635000D03*
X175250000Y-88905000D03*
X180750000Y-88905000D03*
X180750000Y-87635000D03*
X180750000Y-86365000D03*
X180750000Y-85095000D03*
D18*
X191581031Y-129640974D03*
X191581031Y-127240974D03*
D19*
X114937500Y-70680000D03*
X117337500Y-70680000D03*
D20*
X194901031Y-128710974D03*
X194901031Y-124710974D03*
D14*
X115820000Y-74020000D03*
X119820000Y-74020000D03*
D21*
X168750000Y-90500000D03*
X168750000Y-89000000D03*
X168750000Y-74000000D03*
X168750000Y-72500000D03*
X165250000Y-87000000D03*
X165250000Y-85500000D03*
X165250000Y-70500000D03*
X165250000Y-69000000D03*
D22*
X164250000Y-96000000D03*
X162750000Y-96000000D03*
X164250000Y-79500000D03*
X162750000Y-79500000D03*
D23*
X161750000Y-69000000D03*
X161750000Y-70500000D03*
X161750000Y-85500000D03*
X161750000Y-87000000D03*
X138000000Y-91750000D03*
X138000000Y-93250000D03*
X140500000Y-91750000D03*
X140500000Y-93250000D03*
X141750000Y-91750000D03*
X141750000Y-93250000D03*
X139250000Y-91750000D03*
X139250000Y-93250000D03*
D21*
X182750000Y-96000000D03*
X182750000Y-94500000D03*
X182750000Y-79500000D03*
X182750000Y-78000000D03*
X182750000Y-90500000D03*
X182750000Y-89000000D03*
X182750000Y-74000000D03*
X182750000Y-72500000D03*
X182750000Y-68500000D03*
X182750000Y-67000000D03*
X182750000Y-85000000D03*
X182750000Y-83500000D03*
D23*
X170250000Y-75250000D03*
X170250000Y-76750000D03*
D22*
X192750000Y-70000000D03*
X191250000Y-70000000D03*
X189500000Y-67750000D03*
X188000000Y-67750000D03*
D23*
X170250000Y-91750000D03*
X170250000Y-93250000D03*
D22*
X192750000Y-86500000D03*
X191250000Y-86500000D03*
X189500000Y-84250000D03*
X188000000Y-84250000D03*
D24*
X129000000Y-88000000D03*
X130500000Y-88000000D03*
X129000000Y-89250000D03*
X130500000Y-89250000D03*
D22*
X170241031Y-121178474D03*
X168741031Y-121178474D03*
D24*
X168741031Y-122678474D03*
X170241031Y-122678474D03*
D23*
X161820000Y-127070000D03*
X161820000Y-128570000D03*
D22*
X170241031Y-119928474D03*
X168741031Y-119928474D03*
X180641031Y-113298474D03*
X179141031Y-113298474D03*
D23*
X167741031Y-126928474D03*
X167741031Y-128428474D03*
D24*
X182991031Y-128678474D03*
X184491031Y-128678474D03*
D23*
X189061031Y-128428474D03*
X189061031Y-129928474D03*
D24*
X156250000Y-71250000D03*
X157750000Y-71250000D03*
D23*
X192750000Y-52750000D03*
X192750000Y-54250000D03*
D22*
X147650000Y-99200000D03*
X146150000Y-99200000D03*
D23*
X174241031Y-130428474D03*
X174241031Y-131928474D03*
X172991031Y-130428474D03*
X172991031Y-131928474D03*
D24*
X131750000Y-82500000D03*
X133250000Y-82500000D03*
X146150000Y-107900000D03*
X147650000Y-107900000D03*
X127000000Y-77000000D03*
X128500000Y-77000000D03*
D21*
X130500000Y-81000000D03*
X130500000Y-79500000D03*
D23*
X175491031Y-130428474D03*
X175491031Y-131928474D03*
D24*
X182991031Y-129928474D03*
X184491031Y-129928474D03*
X176741031Y-142178474D03*
X178241031Y-142178474D03*
X153180000Y-136890000D03*
X154680000Y-136890000D03*
X151190000Y-134560000D03*
X152690000Y-134560000D03*
X151150000Y-129390000D03*
X152650000Y-129390000D03*
D23*
X176741031Y-130428474D03*
X176741031Y-131928474D03*
D24*
X129000000Y-85250000D03*
X130500000Y-85250000D03*
D21*
X182750000Y-63000000D03*
X182750000Y-61500000D03*
X182750000Y-57500000D03*
X182750000Y-56000000D03*
X171250000Y-58500000D03*
X171250000Y-57000000D03*
X182750000Y-52000000D03*
X182750000Y-50500000D03*
D23*
X171491031Y-127928474D03*
X171491031Y-129428474D03*
X187151031Y-131148474D03*
X187151031Y-132648474D03*
D24*
X129000000Y-86500000D03*
X130500000Y-86500000D03*
D21*
X189891031Y-123888474D03*
X189891031Y-122388474D03*
X157141031Y-113778474D03*
X157141031Y-112278474D03*
D22*
X133250000Y-89250000D03*
X131750000Y-89250000D03*
D24*
X131750000Y-86500000D03*
X133250000Y-86500000D03*
D23*
X138000000Y-54750000D03*
X138000000Y-56250000D03*
D24*
X129000000Y-90500000D03*
X130500000Y-90500000D03*
X131750000Y-79500000D03*
X133250000Y-79500000D03*
D21*
X179241031Y-131928474D03*
X179241031Y-130428474D03*
D22*
X184240000Y-120590000D03*
X182740000Y-120590000D03*
D24*
X131750000Y-83750000D03*
X133250000Y-83750000D03*
D22*
X133250000Y-90500000D03*
X131750000Y-90500000D03*
D23*
X172141031Y-116250000D03*
X172141031Y-117750000D03*
D24*
X168741031Y-125678474D03*
X170241031Y-125678474D03*
D21*
X136750000Y-93250000D03*
X136750000Y-91750000D03*
X149250000Y-92250000D03*
X149250000Y-90750000D03*
D22*
X154750000Y-74500000D03*
X153250000Y-74500000D03*
D23*
X136500000Y-69750000D03*
X136500000Y-71250000D03*
X148000000Y-90750000D03*
X148000000Y-92250000D03*
D24*
X131750000Y-77250000D03*
X133250000Y-77250000D03*
X153250000Y-76000000D03*
X154750000Y-76000000D03*
D21*
X115000000Y-91250000D03*
X115000000Y-89750000D03*
D23*
X129010000Y-65040000D03*
X129010000Y-66540000D03*
D21*
X117500000Y-91250000D03*
X117500000Y-89750000D03*
D24*
X121250000Y-53750000D03*
X122750000Y-53750000D03*
D23*
X112790000Y-87010000D03*
X112790000Y-88510000D03*
D21*
X114520000Y-65480000D03*
X114520000Y-63980000D03*
D23*
X114520000Y-66650000D03*
X114520000Y-68150000D03*
D22*
X117230000Y-68420000D03*
X115730000Y-68420000D03*
D24*
X119920000Y-68280000D03*
X121420000Y-68280000D03*
X188000000Y-51250000D03*
X189500000Y-51250000D03*
X131750000Y-85250000D03*
X133250000Y-85250000D03*
D22*
X184491031Y-124928474D03*
X182991031Y-124928474D03*
D24*
X183391031Y-115798474D03*
X184891031Y-115798474D03*
D21*
X158624364Y-113778474D03*
X158624364Y-112278474D03*
D23*
X168991031Y-126928474D03*
X168991031Y-128428474D03*
D22*
X133250000Y-87750000D03*
X131750000Y-87750000D03*
D21*
X184250000Y-52000000D03*
X184250000Y-50500000D03*
D23*
X170250000Y-78000000D03*
X170250000Y-79500000D03*
X184250000Y-67000000D03*
X184250000Y-68500000D03*
X170250000Y-94500000D03*
X170250000Y-96000000D03*
X184250000Y-83500000D03*
X184250000Y-85000000D03*
D21*
X174530000Y-117740000D03*
X174530000Y-116240000D03*
D24*
X188000000Y-82750000D03*
X189500000Y-82750000D03*
X188000000Y-99500000D03*
X189500000Y-99500000D03*
X188000000Y-88000000D03*
X189500000Y-88000000D03*
X188000000Y-71500000D03*
X189500000Y-71500000D03*
D23*
X109580000Y-143990000D03*
X109580000Y-145490000D03*
D24*
X190241031Y-116508474D03*
X191741031Y-116508474D03*
X109250000Y-83750000D03*
X110750000Y-83750000D03*
X109250000Y-76750000D03*
X110750000Y-76750000D03*
X109250000Y-69750000D03*
X110750000Y-69750000D03*
X109250000Y-82250000D03*
X110750000Y-82250000D03*
X109250000Y-75250000D03*
X110750000Y-75250000D03*
X109250000Y-68250000D03*
X110750000Y-68250000D03*
D23*
X187343031Y-122368474D03*
X187343031Y-123868474D03*
D24*
X184991031Y-147178474D03*
X186491031Y-147178474D03*
X188000000Y-66250000D03*
X189500000Y-66250000D03*
X188000000Y-54750000D03*
X189500000Y-54750000D03*
D21*
X186041031Y-125438474D03*
X186041031Y-123938474D03*
D22*
X188841031Y-125398474D03*
X187341031Y-125398474D03*
D21*
X168750000Y-93250000D03*
X168750000Y-91750000D03*
X168750000Y-76750000D03*
X168750000Y-75250000D03*
X170250000Y-71250000D03*
X170250000Y-69750000D03*
X170250000Y-87750000D03*
X170250000Y-86250000D03*
D22*
X136281031Y-129568474D03*
X134781031Y-129568474D03*
D21*
X101040000Y-144540000D03*
X101040000Y-143040000D03*
D23*
X191250000Y-52750000D03*
X191250000Y-54250000D03*
D22*
X136291031Y-124808474D03*
X134791031Y-124808474D03*
D24*
X166750000Y-70500000D03*
X168250000Y-70500000D03*
X166750000Y-87000000D03*
X168250000Y-87000000D03*
X166750000Y-85500000D03*
X168250000Y-85500000D03*
X166750000Y-69000000D03*
X168250000Y-69000000D03*
D22*
X135000000Y-62750000D03*
X133500000Y-62750000D03*
D24*
X165750000Y-96000000D03*
X167250000Y-96000000D03*
X165750000Y-79500000D03*
X167250000Y-79500000D03*
X163750000Y-97500000D03*
X165250000Y-97500000D03*
X163750000Y-81000000D03*
X165250000Y-81000000D03*
D22*
X135000000Y-64250000D03*
X133500000Y-64250000D03*
D23*
X166041031Y-129178474D03*
X166041031Y-130678474D03*
X167250000Y-75250000D03*
X167250000Y-76750000D03*
X167250000Y-91750000D03*
X167250000Y-93250000D03*
D21*
X167250000Y-90500000D03*
X167250000Y-89000000D03*
X167250000Y-74000000D03*
X167250000Y-72500000D03*
D22*
X136301031Y-120098474D03*
X134801031Y-120098474D03*
D24*
X161000000Y-97500000D03*
X162500000Y-97500000D03*
X161000000Y-81000000D03*
X162500000Y-81000000D03*
D21*
X163250000Y-70500000D03*
X163250000Y-69000000D03*
X163250000Y-87000000D03*
X163250000Y-85500000D03*
X166041031Y-127928474D03*
X166041031Y-126428474D03*
D22*
X117270000Y-63850000D03*
X115770000Y-63850000D03*
D23*
X140000000Y-67250000D03*
X140000000Y-68750000D03*
D22*
X196500000Y-63000000D03*
X195000000Y-63000000D03*
D21*
X182750000Y-65750000D03*
X182750000Y-64250000D03*
D22*
X189500000Y-62000000D03*
X188000000Y-62000000D03*
X196500000Y-61000000D03*
X195000000Y-61000000D03*
D21*
X182750000Y-60250000D03*
X182750000Y-58750000D03*
D22*
X189500000Y-58000000D03*
X188000000Y-58000000D03*
X196500000Y-59000000D03*
X195000000Y-59000000D03*
D21*
X171250000Y-61250000D03*
X171250000Y-59750000D03*
D22*
X189500000Y-60000000D03*
X188000000Y-60000000D03*
X196500000Y-57000000D03*
X195000000Y-57000000D03*
D21*
X182750000Y-54750000D03*
X182750000Y-53250000D03*
D22*
X189500000Y-56000000D03*
X188000000Y-56000000D03*
D21*
X101040000Y-141940000D03*
X101040000Y-140440000D03*
X167341031Y-136578474D03*
X167341031Y-135078474D03*
D23*
X164791031Y-129178474D03*
X164791031Y-130678474D03*
X160250000Y-78250000D03*
X160250000Y-79750000D03*
X160250000Y-94750000D03*
X160250000Y-96250000D03*
D21*
X160250000Y-88000000D03*
X160250000Y-86500000D03*
X160250000Y-71500000D03*
X160250000Y-70000000D03*
X164791031Y-127928474D03*
X164791031Y-126428474D03*
D24*
X182241031Y-147178474D03*
X183741031Y-147178474D03*
D22*
X186491031Y-145928474D03*
X184991031Y-145928474D03*
D21*
X160250000Y-77000000D03*
X160250000Y-75500000D03*
X160250000Y-93500000D03*
X160250000Y-92000000D03*
D23*
X160250000Y-72750000D03*
X160250000Y-74250000D03*
X160250000Y-89250000D03*
X160250000Y-90750000D03*
D22*
X119810000Y-63880000D03*
X118310000Y-63880000D03*
D24*
X113750000Y-59000000D03*
X115250000Y-59000000D03*
X116500000Y-59000000D03*
X118000000Y-59000000D03*
D23*
X163541031Y-129178474D03*
X163541031Y-130678474D03*
X173250000Y-65750000D03*
X173250000Y-67250000D03*
X173250000Y-60250000D03*
X173250000Y-61750000D03*
X161750000Y-61250000D03*
X161750000Y-62750000D03*
X173250000Y-54750000D03*
X173250000Y-56250000D03*
D24*
X113750000Y-60500000D03*
X115250000Y-60500000D03*
X123250000Y-59000000D03*
X124750000Y-59000000D03*
D21*
X163541031Y-127928474D03*
X163541031Y-126428474D03*
D24*
X126000000Y-59000000D03*
X127500000Y-59000000D03*
D21*
X182750000Y-82250000D03*
X182750000Y-80750000D03*
X182750000Y-98750000D03*
X182750000Y-97250000D03*
X182750000Y-76750000D03*
X182750000Y-75250000D03*
X182750000Y-93250000D03*
X182750000Y-91750000D03*
X182750000Y-87750000D03*
X182750000Y-86250000D03*
X182750000Y-71250000D03*
X182750000Y-69750000D03*
D24*
X182991031Y-127378474D03*
X184491031Y-127378474D03*
D23*
X123630000Y-89810000D03*
X123630000Y-91310000D03*
X123630000Y-92560000D03*
X123630000Y-94060000D03*
D22*
X127500000Y-60500000D03*
X126000000Y-60500000D03*
D21*
X122310000Y-94060000D03*
X122310000Y-92560000D03*
X122310000Y-91310000D03*
X122310000Y-89810000D03*
D23*
X173250000Y-82250000D03*
X173250000Y-83750000D03*
X173250000Y-98500000D03*
X173250000Y-100000000D03*
X173250000Y-76750000D03*
X173250000Y-78250000D03*
X173250000Y-93250000D03*
X173250000Y-94750000D03*
X173250000Y-87750000D03*
X173250000Y-89250000D03*
X173250000Y-71250000D03*
X173250000Y-72750000D03*
D22*
X160091031Y-123478474D03*
X158591031Y-123478474D03*
D21*
X168750000Y-79500000D03*
X168750000Y-78000000D03*
X168750000Y-96000000D03*
X168750000Y-94500000D03*
D24*
X195000000Y-76750000D03*
X196500000Y-76750000D03*
D22*
X196500000Y-78000000D03*
X195000000Y-78000000D03*
D24*
X193000000Y-72000000D03*
X194500000Y-72000000D03*
X195000000Y-93250000D03*
X196500000Y-93250000D03*
D22*
X196500000Y-94500000D03*
X195000000Y-94500000D03*
D24*
X193000000Y-88500000D03*
X194500000Y-88500000D03*
D22*
X108330000Y-145380000D03*
X106830000Y-145380000D03*
D25*
X128581031Y-131288474D03*
X131581031Y-131288474D03*
X133311031Y-131268474D03*
X136311031Y-131268474D03*
X128591031Y-126558474D03*
X131591031Y-126558474D03*
X133321031Y-126538474D03*
X136321031Y-126538474D03*
X128601031Y-121818474D03*
X131601031Y-121818474D03*
X133331031Y-121798474D03*
X136331031Y-121798474D03*
D26*
X167341031Y-146878474D03*
X167341031Y-143878474D03*
X167341031Y-141678474D03*
X167341031Y-138678474D03*
D27*
X184741031Y-138928474D03*
X194741031Y-138928474D03*
D28*
X175291031Y-143523474D03*
X175291031Y-144793474D03*
X175291031Y-147333474D03*
X180191031Y-147333474D03*
X180191031Y-146063474D03*
X180191031Y-144793474D03*
X180191031Y-143523474D03*
D29*
X99440000Y-81694721D03*
X99440000Y-79694721D03*
X99390000Y-74719020D03*
X99390000Y-72719020D03*
X99390000Y-67719020D03*
X99390000Y-65719020D03*
D30*
X149475000Y-51060000D03*
X151475000Y-51060000D03*
X144225000Y-51060000D03*
X146225000Y-51060000D03*
X138975000Y-51060000D03*
X140975000Y-51060000D03*
X110475000Y-51060000D03*
X112475000Y-51060000D03*
X120975000Y-51060000D03*
X122975000Y-51060000D03*
D24*
X98750000Y-78000000D03*
X100250000Y-78000000D03*
X98750000Y-71000000D03*
X100250000Y-71000000D03*
X98750000Y-64000000D03*
X100250000Y-64000000D03*
D23*
X148000000Y-50500000D03*
X148000000Y-52000000D03*
X142750000Y-50500000D03*
X142750000Y-52000000D03*
X137500000Y-50500000D03*
X137500000Y-52000000D03*
D24*
X110750000Y-52500000D03*
X112250000Y-52500000D03*
X121250000Y-52250000D03*
X122750000Y-52250000D03*
D21*
X110830000Y-142880000D03*
X110830000Y-141380000D03*
X187741031Y-147178474D03*
X187741031Y-145678474D03*
D24*
X119920000Y-65820000D03*
X121420000Y-65820000D03*
D21*
X170250000Y-74000000D03*
X170250000Y-72500000D03*
X170250000Y-90500000D03*
X170250000Y-89000000D03*
D20*
X106500000Y-82750000D03*
X106500000Y-78750000D03*
X106500000Y-75750000D03*
X106500000Y-71750000D03*
X106500000Y-68750000D03*
X106500000Y-64750000D03*
D31*
X132450000Y-70000000D03*
X132450000Y-74000000D03*
D23*
X147500000Y-54750000D03*
X147500000Y-56250000D03*
D32*
X172381031Y-112048474D03*
X173881031Y-112048474D03*
D33*
X113250000Y-92750000D03*
X113250000Y-91250000D03*
D34*
X140000000Y-64250000D03*
X140000000Y-65750000D03*
D14*
X99750000Y-52000000D03*
X103750000Y-52000000D03*
D22*
X100250000Y-83500000D03*
X98750000Y-83500000D03*
X100250000Y-76500000D03*
X98750000Y-76500000D03*
X100250000Y-69500000D03*
X98750000Y-69500000D03*
D24*
X110750000Y-53750000D03*
X112250000Y-53750000D03*
D29*
X99390000Y-58719020D03*
X99390000Y-56719020D03*
D24*
X99000000Y-61250000D03*
X100500000Y-61250000D03*
D21*
X116250000Y-91250000D03*
X116250000Y-89750000D03*
X120500000Y-91250000D03*
X120500000Y-89750000D03*
X188621031Y-123888474D03*
X188621031Y-122388474D03*
D24*
X119920000Y-67050000D03*
X121420000Y-67050000D03*
D35*
X193941031Y-116898474D03*
X193941031Y-118898474D03*
D29*
X99450000Y-143790000D03*
X99450000Y-141790000D03*
D36*
X191241031Y-123738474D03*
X191241031Y-121738474D03*
X192931031Y-123738474D03*
X192931031Y-121738474D03*
D37*
X184491031Y-144178474D03*
X182491031Y-144178474D03*
D38*
X193801031Y-133878474D03*
X195801031Y-133878474D03*
D39*
X190377697Y-131298474D03*
X190377697Y-133298474D03*
D38*
X119570000Y-69720000D03*
X121570000Y-69720000D03*
D36*
X119000000Y-91250000D03*
X119000000Y-89250000D03*
D38*
X119570000Y-71470000D03*
X121570000Y-71470000D03*
D22*
X170241031Y-124178474D03*
X168741031Y-124178474D03*
X133250000Y-81000000D03*
X131750000Y-81000000D03*
D40*
X123191031Y-107778474D03*
X117691031Y-107778474D03*
X123191031Y-112278474D03*
X117691031Y-112278474D03*
X123241031Y-117028474D03*
X117741031Y-117028474D03*
D41*
X157950000Y-67550000D03*
X157000000Y-67550000D03*
X156050000Y-67550000D03*
X156050000Y-69950000D03*
X157000000Y-69950000D03*
X157950000Y-69950000D03*
D42*
X144300000Y-57200000D03*
X145250000Y-57200000D03*
X146200000Y-57200000D03*
X146200000Y-54800000D03*
X145250000Y-54800000D03*
X144300000Y-54800000D03*
D41*
X180191031Y-109598474D03*
X179241031Y-109598474D03*
X178291031Y-109598474D03*
X178291031Y-111998474D03*
X179241031Y-111998474D03*
X180191031Y-111998474D03*
D42*
X139300000Y-57200000D03*
X140250000Y-57200000D03*
X141200000Y-57200000D03*
X141200000Y-54800000D03*
X140250000Y-54800000D03*
X139300000Y-54800000D03*
D43*
X127700000Y-88200000D03*
X127700000Y-87250000D03*
X127700000Y-86300000D03*
X125300000Y-86300000D03*
X125300000Y-87250000D03*
X125300000Y-88200000D03*
D41*
X185091031Y-111848474D03*
X184141031Y-111848474D03*
X183191031Y-111848474D03*
X183191031Y-114248474D03*
X184141031Y-114248474D03*
X185091031Y-114248474D03*
D39*
X160307697Y-111778474D03*
X160307697Y-113778474D03*
D23*
X110830000Y-143990000D03*
X110830000Y-145490000D03*
X111500000Y-87010000D03*
X111500000Y-88510000D03*
D21*
X121750000Y-61750000D03*
X121750000Y-60250000D03*
X120500000Y-61750000D03*
X120500000Y-60250000D03*
X119250000Y-61750000D03*
X119250000Y-60250000D03*
D44*
X109300000Y-80687500D03*
X111200000Y-80687500D03*
X110250000Y-78812500D03*
X109300000Y-73687500D03*
X111200000Y-73687500D03*
X110250000Y-71812500D03*
X109300000Y-66687500D03*
X111200000Y-66687500D03*
X110250000Y-64812500D03*
D45*
X135200000Y-65812500D03*
X133300000Y-65812500D03*
X134250000Y-67687500D03*
D21*
X123000000Y-61750000D03*
X123000000Y-60250000D03*
X116750000Y-61750000D03*
X116750000Y-60250000D03*
D23*
X105000000Y-60750000D03*
X105000000Y-62250000D03*
X108800000Y-60760000D03*
X108800000Y-62260000D03*
X106250000Y-60750000D03*
X106250000Y-62250000D03*
X107500000Y-60750000D03*
X107500000Y-62250000D03*
D22*
X112880000Y-85770000D03*
X111380000Y-85770000D03*
D21*
X118000000Y-61750000D03*
X118000000Y-60250000D03*
D39*
X192091031Y-131298474D03*
X192091031Y-133298474D03*
D21*
X161991031Y-113778474D03*
X161991031Y-112278474D03*
D22*
X160091031Y-121878474D03*
X158591031Y-121878474D03*
D46*
X163700000Y-55990000D03*
X162900000Y-55990000D03*
D47*
X161750000Y-55990000D03*
X160750000Y-55990000D03*
X160250000Y-55990000D03*
X159250000Y-55990000D03*
D46*
X158100000Y-55990000D03*
X157300000Y-55990000D03*
X157300000Y-55990000D03*
X158100000Y-55990000D03*
D47*
X158750000Y-55990000D03*
X159750000Y-55990000D03*
X161250000Y-55990000D03*
X162250000Y-55990000D03*
D46*
X162900000Y-55990000D03*
X163700000Y-55990000D03*
D48*
X164820000Y-55415000D03*
D49*
X164820000Y-51235000D03*
D48*
X156180000Y-55415000D03*
D49*
X156180000Y-51235000D03*
D24*
X182991031Y-126178474D03*
X184491031Y-126178474D03*
D50*
X171241031Y-146928474D03*
X171241031Y-142928474D03*
D51*
X182164286Y-135715220D03*
X184992714Y-132886792D03*
D21*
X170241031Y-128428474D03*
X170241031Y-126928474D03*
D52*
X172141031Y-121428474D03*
X172141031Y-121928474D03*
X172141031Y-122428474D03*
X172141031Y-122928474D03*
X172141031Y-123428474D03*
X172141031Y-123928474D03*
X172141031Y-124428474D03*
X172141031Y-124928474D03*
X172141031Y-125428474D03*
X172141031Y-125928474D03*
X172141031Y-126428474D03*
X172141031Y-126928474D03*
D53*
X173741031Y-128528474D03*
X174241031Y-128528474D03*
X174741031Y-128528474D03*
X175241031Y-128528474D03*
X175741031Y-128528474D03*
X176241031Y-128528474D03*
X176741031Y-128528474D03*
X177241031Y-128528474D03*
X177741031Y-128528474D03*
X178241031Y-128528474D03*
X178741031Y-128528474D03*
X179241031Y-128528474D03*
D52*
X180841031Y-126928474D03*
X180841031Y-126428474D03*
X180841031Y-125928474D03*
X180841031Y-125428474D03*
X180841031Y-124928474D03*
X180841031Y-124428474D03*
X180841031Y-123928474D03*
X180841031Y-123428474D03*
X180841031Y-122928474D03*
X180841031Y-122428474D03*
X180841031Y-121928474D03*
X180841031Y-121428474D03*
D53*
X179241031Y-119828474D03*
X178741031Y-119828474D03*
X178241031Y-119828474D03*
X177741031Y-119828474D03*
X177241031Y-119828474D03*
X176741031Y-119828474D03*
X176241031Y-119828474D03*
X175741031Y-119828474D03*
X175241031Y-119828474D03*
X174741031Y-119828474D03*
X174241031Y-119828474D03*
X173741031Y-119828474D03*
D54*
X135350000Y-74750000D03*
X135350000Y-75250000D03*
X135350000Y-75750000D03*
X135350000Y-76250000D03*
X135350000Y-76750000D03*
X135350000Y-77250000D03*
X135350000Y-77750000D03*
X135350000Y-78250000D03*
X135350000Y-78750000D03*
X135350000Y-79250000D03*
X135350000Y-79750000D03*
X135350000Y-80250000D03*
X135350000Y-80750000D03*
X135350000Y-81250000D03*
X135350000Y-81750000D03*
X135350000Y-82250000D03*
X135350000Y-82750000D03*
X135350000Y-83250000D03*
X135350000Y-83750000D03*
X135350000Y-84250000D03*
X135350000Y-84750000D03*
X135350000Y-85250000D03*
X135350000Y-85750000D03*
X135350000Y-86250000D03*
X135350000Y-86750000D03*
D55*
X137250000Y-88650000D03*
X137750000Y-88650000D03*
X138250000Y-88650000D03*
X138750000Y-88650000D03*
X139250000Y-88650000D03*
X139750000Y-88650000D03*
X140250000Y-88650000D03*
X140750000Y-88650000D03*
X141250000Y-88650000D03*
X141750000Y-88650000D03*
X142250000Y-88650000D03*
X142750000Y-88650000D03*
X143250000Y-88650000D03*
X143750000Y-88650000D03*
X144250000Y-88650000D03*
X144750000Y-88650000D03*
X145250000Y-88650000D03*
X145750000Y-88650000D03*
X146250000Y-88650000D03*
X146750000Y-88650000D03*
X147250000Y-88650000D03*
X147750000Y-88650000D03*
X148250000Y-88650000D03*
X148750000Y-88650000D03*
X149250000Y-88650000D03*
D54*
X151150000Y-86750000D03*
X151150000Y-86250000D03*
X151150000Y-85750000D03*
X151150000Y-85250000D03*
X151150000Y-84750000D03*
X151150000Y-84250000D03*
X151150000Y-83750000D03*
X151150000Y-83250000D03*
X151150000Y-82750000D03*
X151150000Y-82250000D03*
X151150000Y-81750000D03*
X151150000Y-81250000D03*
X151150000Y-80750000D03*
X151150000Y-80250000D03*
X151150000Y-79750000D03*
X151150000Y-79250000D03*
X151150000Y-78750000D03*
X151150000Y-78250000D03*
X151150000Y-77750000D03*
X151150000Y-77250000D03*
X151150000Y-76750000D03*
X151150000Y-76250000D03*
X151150000Y-75750000D03*
X151150000Y-75250000D03*
X151150000Y-74750000D03*
D55*
X149250000Y-72850000D03*
X148750000Y-72850000D03*
X148250000Y-72850000D03*
X147750000Y-72850000D03*
X147250000Y-72850000D03*
X146750000Y-72850000D03*
X146250000Y-72850000D03*
X145750000Y-72850000D03*
X145250000Y-72850000D03*
X144750000Y-72850000D03*
X144250000Y-72850000D03*
X143750000Y-72850000D03*
X143250000Y-72850000D03*
X142750000Y-72850000D03*
X142250000Y-72850000D03*
X141750000Y-72850000D03*
X141250000Y-72850000D03*
X140750000Y-72850000D03*
X140250000Y-72850000D03*
X139750000Y-72850000D03*
X139250000Y-72850000D03*
X138750000Y-72850000D03*
X138250000Y-72850000D03*
X137750000Y-72850000D03*
X137250000Y-72850000D03*
D39*
X188664364Y-131298474D03*
X188664364Y-133298474D03*
D38*
X193801031Y-131948474D03*
X195801031Y-131948474D03*
D56*
X107970000Y-142770000D03*
X107970000Y-140870000D03*
X106095000Y-141820000D03*
D23*
X109580000Y-141380000D03*
X109580000Y-142880000D03*
D24*
X106830000Y-144130000D03*
X108330000Y-144130000D03*
D23*
X112080000Y-141380000D03*
X112080000Y-142880000D03*
D21*
X113330000Y-142880000D03*
X113330000Y-141380000D03*
D22*
X107750000Y-139000000D03*
X106250000Y-139000000D03*
X105070000Y-138970000D03*
X103570000Y-138970000D03*
D57*
X188140000Y-113900000D03*
X188140000Y-113100000D03*
D58*
X188140000Y-111950000D03*
X188140000Y-110950000D03*
X188140000Y-110450000D03*
X188140000Y-109450000D03*
D57*
X188140000Y-108300000D03*
X188140000Y-107500000D03*
X188140000Y-107500000D03*
X188140000Y-108300000D03*
D58*
X188140000Y-108950000D03*
X188140000Y-109950000D03*
X188140000Y-111450000D03*
X188140000Y-112450000D03*
D57*
X188140000Y-113100000D03*
X188140000Y-113900000D03*
D59*
X188715000Y-115020000D03*
D60*
X192895000Y-115020000D03*
D59*
X188715000Y-106380000D03*
D60*
X192895000Y-106380000D03*
D24*
X120167500Y-79685000D03*
X121667500Y-79685000D03*
D22*
X186191031Y-107698474D03*
X184691031Y-107698474D03*
D24*
X155991031Y-115478474D03*
X157491031Y-115478474D03*
D22*
X117477500Y-81055000D03*
X115977500Y-81055000D03*
X160091031Y-117078474D03*
X158591031Y-117078474D03*
X107430000Y-85710000D03*
X105930000Y-85710000D03*
D21*
X158300000Y-59750000D03*
X158300000Y-58250000D03*
X110230000Y-88510000D03*
X110230000Y-87010000D03*
D38*
X119817500Y-82355000D03*
X121817500Y-82355000D03*
D23*
X105800000Y-91110000D03*
X105800000Y-92610000D03*
D24*
X184690000Y-106420000D03*
X186190000Y-106420000D03*
D23*
X114767500Y-79285000D03*
X114767500Y-80785000D03*
D22*
X154850000Y-51200000D03*
X153350000Y-51200000D03*
D24*
X155991031Y-121878474D03*
X157491031Y-121878474D03*
X155991031Y-117078474D03*
X157491031Y-117078474D03*
D39*
X102610000Y-90760000D03*
X102610000Y-92760000D03*
D21*
X186210000Y-114040000D03*
X186210000Y-112540000D03*
D23*
X107030000Y-91110000D03*
X107030000Y-92610000D03*
D24*
X155991031Y-123478474D03*
X157491031Y-123478474D03*
D23*
X108260000Y-91110000D03*
X108260000Y-92610000D03*
D24*
X155991031Y-120328474D03*
X157491031Y-120328474D03*
D22*
X117517500Y-76485000D03*
X116017500Y-76485000D03*
X121660000Y-77230000D03*
X120160000Y-77230000D03*
X160091031Y-118678474D03*
X158591031Y-118678474D03*
X154850000Y-52500000D03*
X153350000Y-52500000D03*
D14*
X116067500Y-86655000D03*
X120067500Y-86655000D03*
D43*
X118282500Y-67015000D03*
X118282500Y-66065000D03*
X118282500Y-65115000D03*
X115882500Y-65115000D03*
X115882500Y-66065000D03*
X115882500Y-67015000D03*
X118530000Y-79650000D03*
X118530000Y-78700000D03*
X118530000Y-77750000D03*
X116130000Y-77750000D03*
X116130000Y-78700000D03*
X116130000Y-79650000D03*
D21*
X162300000Y-59650000D03*
X162300000Y-58150000D03*
D24*
X155991031Y-118678474D03*
X157491031Y-118678474D03*
D42*
X107065000Y-89472500D03*
X108015000Y-89472500D03*
X108965000Y-89472500D03*
X108965000Y-87072500D03*
X108015000Y-87072500D03*
X107065000Y-87072500D03*
D61*
X103400000Y-86127500D03*
X103400000Y-88527500D03*
D21*
X105660000Y-88420000D03*
X105660000Y-86920000D03*
D22*
X160091031Y-120328474D03*
X158591031Y-120328474D03*
D21*
X110200000Y-91000000D03*
X110200000Y-89500000D03*
D39*
X104360000Y-90760000D03*
X104360000Y-92760000D03*
D38*
X119817500Y-84105000D03*
X121817500Y-84105000D03*
D24*
X120167500Y-80915000D03*
X121667500Y-80915000D03*
X184691031Y-108998474D03*
X186191031Y-108998474D03*
D31*
X100060000Y-87010000D03*
X100060000Y-91010000D03*
D24*
X155991031Y-110728474D03*
X157491031Y-110728474D03*
D21*
X114767500Y-78115000D03*
X114767500Y-76615000D03*
D41*
X187776031Y-127535974D03*
X186826031Y-127535974D03*
X185876031Y-127535974D03*
X185876031Y-129935974D03*
X186826031Y-129935974D03*
X187776031Y-129935974D03*
D24*
X108655000Y-85710000D03*
X110155000Y-85710000D03*
D22*
X160091031Y-115478474D03*
X158591031Y-115478474D03*
D19*
X115185000Y-83315000D03*
X117585000Y-83315000D03*
D24*
X120167500Y-78455000D03*
X121667500Y-78455000D03*
X184691031Y-110298474D03*
X186191031Y-110298474D03*
M02*
